<svg xmlns="http://www.w3.org/2000/svg" xmlns:xlink="http://www.w3.org/1999/xlink" width="500" zoomAndPan="magnify" viewBox="0 0 375 374.999991" height="500" preserveAspectRatio="xMidYMid meet" version="1.0"><defs><g/><clipPath id="fd3f88aa69"><path d="M 106 214 L 253.402344 214 L 253.402344 266 L 106 266 Z M 106 214 " clip-rule="nonzero"/></clipPath><clipPath id="2049ab9928"><path d="M 90 117 L 212 117 L 212 171 L 90 171 Z M 90 117 " clip-rule="nonzero"/></clipPath><clipPath id="748af653b0"><path d="M 133.167969 90.402344 L 212.902344 136.796875 L 169.523438 211.34375 L 89.789062 164.949219 Z M 133.167969 90.402344 " clip-rule="nonzero"/></clipPath><clipPath id="660d339098"><path d="M 133.167969 90.402344 L 212.902344 136.796875 L 169.523438 211.34375 L 89.789062 164.949219 Z M 133.167969 90.402344 " clip-rule="nonzero"/></clipPath></defs><path fill="#2e2c2c" d="M 184.347656 278.796875 C 186.96875 278.015625 189.523438 277.121094 192.007812 276.121094 C 149.015625 284.628906 105.828125 259.152344 93.101562 216.300781 C 80.375 173.449219 102.660156 128.527344 143.328125 112.191406 C 140.699219 112.710938 138.070312 113.351562 135.449219 114.128906 C 89.980469 127.632812 64.066406 175.441406 77.566406 220.914062 C 91.070312 266.382812 138.878906 292.296875 184.347656 278.796875 " fill-opacity="1" fill-rule="nonzero"/><path fill="#0cc0df" d="M 77.933594 256.996094 C 80.214844 258.785156 82.554688 260.441406 84.941406 261.976562 C 51.222656 230.035156 46.753906 177.078125 75.984375 139.796875 C 105.21875 102.515625 157.710938 94.222656 196.773438 119.351562 C 194.710938 117.398438 192.550781 115.519531 190.269531 113.734375 C 150.707031 82.714844 93.492188 89.636719 62.46875 129.199219 C 31.449219 168.757812 38.375 225.976562 77.933594 256.996094 " fill-opacity="1" fill-rule="nonzero"/><g clip-path="url(#fd3f88aa69)"><path fill="#0cc0df" d="M 162.582031 252.839844 C 139.121094 246.53125 119.824219 232.464844 106.703125 214.148438 C 117.046875 236.992188 137.15625 255.195312 163.265625 262.210938 C 197.367188 271.378906 232.183594 258.902344 253.136719 233.191406 C 228.773438 253.265625 195.390625 261.65625 162.582031 252.839844 " fill-opacity="1" fill-rule="nonzero"/></g><g clip-path="url(#2049ab9928)"><g clip-path="url(#748af653b0)"><g clip-path="url(#660d339098)"><path fill="#2e2c2c" d="M 185.554688 124.25 C 184.726562 123.730469 183.902344 123.265625 183.082031 122.855469 C 182.175781 122.332031 181.265625 121.808594 180.359375 121.289062 C 181.117188 121.6875 181.886719 122.136719 182.660156 122.632812 C 183.628906 123.171875 184.589844 123.710938 185.554688 124.25 Z M 203.253906 134.117188 C 196.074219 130.234375 189.277344 129.257812 182.71875 130.128906 C 179.226562 127.140625 175.738281 124.152344 172.246094 121.167969 C 177.09375 120.929688 182.121094 122.046875 187.429688 125.292969 C 192.703125 128.234375 197.980469 131.175781 203.253906 134.117188 Z M 208.019531 136.773438 C 206.753906 136.109375 205.5 135.527344 204.253906 135.023438 C 203.34375 134.5 202.433594 133.976562 201.527344 133.453125 C 202.714844 133.945312 203.914062 134.515625 205.128906 135.160156 C 206.089844 135.699219 207.054688 136.238281 208.019531 136.773438 Z M 201.632812 134.074219 C 200.402344 133.679688 199.183594 133.359375 197.972656 133.113281 C 197.15625 132.597656 196.339844 132.085938 195.523438 131.574219 C 196.679688 131.820312 197.847656 132.136719 199.023438 132.523438 C 199.894531 133.039062 200.761719 133.558594 201.632812 134.074219 Z M 195.421875 132.6875 C 194.222656 132.535156 193.03125 132.453125 191.851562 132.429688 C 191.125 131.910156 190.398438 131.386719 189.671875 130.863281 C 190.800781 130.898438 191.9375 130.988281 193.085938 131.148438 C 193.863281 131.660156 194.640625 132.171875 195.421875 132.6875 Z M 189.363281 132.472656 C 188.191406 132.53125 187.027344 132.65625 185.875 132.828125 C 185.234375 132.28125 184.597656 131.734375 183.957031 131.1875 C 185.0625 131.035156 186.175781 130.929688 187.292969 130.882812 C 187.980469 131.410156 188.671875 131.941406 189.363281 132.472656 Z M 169.40625 120.210938 C 168.652344 120.285156 167.902344 120.390625 167.15625 120.523438 C 166.605469 119.9375 166.050781 119.351562 165.5 118.769531 C 166.195312 118.660156 166.894531 118.582031 167.597656 118.527344 C 168.199219 119.089844 168.804688 119.652344 169.40625 120.210938 Z M 180.460938 130.5 C 173.957031 131.78125 167.683594 134.785156 161.492188 138.441406 C 159.84375 134.265625 158.191406 130.082031 156.539062 125.902344 C 161.121094 123.628906 165.765625 121.835938 170.574219 121.300781 C 173.867188 124.367188 177.164062 127.433594 180.460938 130.5 Z M 183.4375 133.269531 C 182.289062 133.519531 181.152344 133.8125 180.015625 134.15625 C 179.464844 133.570312 178.914062 132.984375 178.359375 132.398438 C 179.445312 132.085938 180.535156 131.816406 181.628906 131.589844 C 182.230469 132.152344 182.835938 132.710938 183.4375 133.269531 Z M 177.625 134.941406 C 176.5 135.34375 175.378906 135.785156 174.261719 136.261719 C 173.796875 135.628906 173.328125 134.992188 172.859375 134.355469 C 173.925781 133.910156 174.996094 133.5 176.074219 133.125 C 176.589844 133.734375 177.109375 134.335938 177.625 134.941406 Z M 171.90625 137.328125 C 170.800781 137.855469 169.695312 138.414062 168.59375 139.003906 C 168.207031 138.304688 167.824219 137.609375 167.441406 136.914062 C 168.492188 136.363281 169.550781 135.839844 170.609375 135.347656 C 171.042969 136.007812 171.476562 136.667969 171.90625 137.328125 Z M 166.265625 140.285156 C 165.171875 140.90625 164.078125 141.554688 162.988281 142.222656 C 162.683594 141.457031 162.382812 140.691406 162.078125 139.925781 C 163.125 139.304688 164.171875 138.695312 165.214844 138.113281 C 165.566406 138.835938 165.917969 139.558594 166.265625 140.285156 Z M 154.4375 125.167969 C 153.722656 125.53125 153.007812 125.898438 152.292969 126.277344 C 152.070312 125.4375 151.851562 124.601562 151.628906 123.765625 C 152.296875 123.433594 152.964844 123.101562 153.632812 122.785156 C 153.902344 123.582031 154.167969 124.375 154.4375 125.167969 Z M 159.355469 139.734375 C 153.183594 143.53125 147.082031 147.859375 140.910156 151.65625 C 141.042969 145.84375 141.175781 140.03125 141.304688 134.222656 C 145.875 131.847656 150.386719 129.082031 154.957031 126.707031 C 156.421875 131.050781 157.886719 135.394531 159.355469 139.734375 Z M 160.679688 143.65625 C 159.589844 144.347656 158.507812 145.054688 157.421875 145.769531 C 157.203125 144.933594 156.980469 144.097656 156.761719 143.257812 C 157.796875 142.585938 158.835938 141.925781 159.875 141.277344 C 160.144531 142.070312 160.414062 142.863281 160.679688 143.65625 Z M 155.128906 147.300781 C 154.046875 148.027344 152.964844 148.761719 151.882812 149.5 C 151.742188 148.589844 151.601562 147.675781 151.464844 146.765625 C 152.5 146.070312 153.535156 145.382812 154.570312 144.695312 C 154.757812 145.566406 154.941406 146.433594 155.128906 147.300781 Z M 149.59375 151.0625 C 148.507812 151.796875 147.429688 152.535156 146.347656 153.261719 C 146.289062 152.273438 146.230469 151.285156 146.171875 150.296875 C 147.207031 149.613281 148.242188 148.921875 149.277344 148.230469 C 149.382812 149.175781 149.488281 150.117188 149.59375 151.0625 Z M 144.050781 154.792969 C 142.96875 155.507812 141.882812 156.214844 140.796875 156.90625 C 140.816406 155.84375 140.84375 154.78125 140.867188 153.71875 C 141.90625 153.070312 142.945312 152.40625 143.980469 151.734375 C 144.003906 152.753906 144.03125 153.773438 144.050781 154.792969 Z M 139.832031 132.90625 C 139.117188 133.25 138.394531 133.585938 137.671875 133.898438 C 137.78125 132.769531 137.886719 131.636719 137.992188 130.503906 C 138.667969 130.226562 139.335938 129.933594 140.007812 129.632812 C 139.949219 130.722656 139.890625 131.816406 139.832031 132.90625 Z M 138.773438 152.945312 C 132.585938 156.605469 126.3125 159.609375 119.808594 160.890625 C 121.765625 153.804688 123.726562 146.714844 125.6875 139.628906 C 130.496094 139.09375 135.140625 137.300781 139.722656 135.027344 C 139.40625 141 139.089844 146.972656 138.773438 152.945312 Z M 138.488281 158.34375 C 137.398438 159.007812 136.304688 159.65625 135.207031 160.28125 C 135.3125 159.144531 135.417969 158.015625 135.527344 156.882812 C 136.574219 156.296875 137.617188 155.691406 138.660156 155.066406 C 138.605469 156.15625 138.546875 157.25 138.488281 158.34375 Z M 132.882812 161.558594 C 131.777344 162.144531 130.675781 162.707031 129.566406 163.234375 C 129.753906 162.039062 129.941406 160.839844 130.132812 159.644531 C 131.191406 159.15625 132.246094 158.632812 133.300781 158.082031 C 133.164062 159.242188 133.023438 160.398438 132.882812 161.558594 Z M 127.210938 164.300781 C 126.09375 164.777344 124.976562 165.21875 123.847656 165.621094 C 124.121094 164.371094 124.394531 163.117188 124.667969 161.867188 C 125.742188 161.496094 126.816406 161.085938 127.882812 160.640625 C 127.65625 161.859375 127.433594 163.078125 127.210938 164.300781 Z M 121.457031 166.410156 C 120.324219 166.75 119.183594 167.042969 118.039062 167.289062 C 118.398438 165.996094 118.753906 164.699219 119.113281 163.402344 C 120.207031 163.179688 121.296875 162.90625 122.382812 162.59375 C 122.074219 163.867188 121.765625 165.136719 121.457031 166.410156 Z M 124.78125 137.222656 C 124.023438 137.246094 123.257812 137.238281 122.488281 137.191406 C 122.933594 135.863281 123.378906 134.539062 123.824219 133.210938 C 124.542969 133.273438 125.253906 133.296875 125.964844 133.289062 C 125.570312 134.601562 125.175781 135.910156 124.78125 137.222656 Z M 117.546875 161.261719 C 110.992188 162.132812 104.195312 161.160156 97.011719 157.273438 C 100.953125 150.058594 104.890625 142.847656 108.832031 135.636719 C 114.140625 138.882812 119.167969 139.996094 124.015625 139.761719 C 121.859375 146.929688 119.703125 154.097656 117.546875 161.261719 Z M 115.601562 167.734375 C 114.445312 167.90625 113.28125 168.027344 112.113281 168.089844 C 112.558594 166.765625 113.003906 165.4375 113.449219 164.109375 C 114.566406 164.0625 115.679688 163.960938 116.785156 163.804688 C 116.390625 165.117188 115.996094 166.425781 115.601562 167.734375 Z M 109.625 168.132812 C 108.441406 168.109375 107.253906 168.027344 106.054688 167.875 C 106.585938 166.53125 107.121094 165.191406 107.65625 163.847656 C 108.800781 164.003906 109.9375 164.09375 111.066406 164.128906 C 110.585938 165.464844 110.105469 166.796875 109.625 168.132812 Z M 103.503906 167.453125 C 102.289062 167.203125 101.070312 166.886719 99.839844 166.488281 C 100.464844 165.148438 101.09375 163.808594 101.71875 162.46875 C 102.894531 162.855469 104.0625 163.171875 105.21875 163.421875 C 104.648438 164.765625 104.074219 166.109375 103.503906 167.453125 Z M 97.222656 165.539062 C 95.976562 165.039062 94.71875 164.453125 93.453125 163.785156 C 94.175781 162.46875 94.894531 161.148438 95.613281 159.832031 C 96.824219 160.480469 98.027344 161.046875 99.214844 161.539062 C 98.550781 162.871094 97.882812 164.203125 97.222656 165.539062 Z M 112.390625 129.121094 C 113.167969 129.621094 113.933594 130.070312 114.699219 130.472656 C 114.035156 131.804688 113.367188 133.140625 112.703125 134.472656 C 111.886719 134.058594 111.0625 133.597656 110.230469 133.078125 C 110.953125 131.761719 111.671875 130.441406 112.390625 129.121094 Z M 116.300781 131.25 C 117.058594 131.585938 117.800781 131.875 118.546875 132.121094 C 117.972656 133.464844 117.402344 134.808594 116.832031 136.152344 C 116.03125 135.902344 115.230469 135.613281 114.425781 135.269531 C 115.050781 133.929688 115.675781 132.589844 116.300781 131.25 Z M 120.109375 132.582031 C 120.84375 132.773438 121.574219 132.921875 122.296875 133.03125 C 121.816406 134.367188 121.335938 135.699219 120.851562 137.039062 C 120.074219 136.933594 119.292969 136.792969 118.503906 136.605469 C 119.039062 135.265625 119.574219 133.921875 120.109375 132.582031 Z M 127.457031 133.230469 C 128.160156 133.179688 128.859375 133.097656 129.554688 132.992188 C 129.246094 134.261719 128.9375 135.53125 128.632812 136.800781 C 127.886719 136.9375 127.136719 137.039062 126.382812 137.113281 C 126.738281 135.820312 127.101562 134.523438 127.457031 133.230469 Z M 131.023438 132.722656 C 131.710938 132.578125 132.398438 132.410156 133.085938 132.21875 C 132.863281 133.441406 132.636719 134.660156 132.414062 135.878906 C 131.679688 136.105469 130.945312 136.304688 130.203125 136.476562 C 130.476562 135.226562 130.75 133.972656 131.023438 132.722656 Z M 134.527344 131.78125 C 135.210938 131.566406 135.890625 131.324219 136.566406 131.070312 C 136.425781 132.230469 136.285156 133.390625 136.144531 134.550781 C 135.417969 134.84375 134.691406 135.117188 133.960938 135.371094 C 134.152344 134.175781 134.339844 132.980469 134.527344 131.78125 Z M 141.421875 128.972656 C 142.089844 128.652344 142.757812 128.328125 143.421875 127.992188 C 143.445312 129.011719 143.472656 130.03125 143.496094 131.050781 C 142.78125 131.429688 142.066406 131.796875 141.351562 132.160156 C 141.375 131.097656 141.398438 130.035156 141.421875 128.972656 Z M 144.828125 127.277344 C 145.496094 126.9375 146.160156 126.589844 146.824219 126.246094 C 146.929688 127.1875 147.035156 128.132812 147.140625 129.078125 C 146.429688 129.46875 145.714844 129.855469 145.003906 130.242188 C 144.945312 129.253906 144.890625 128.265625 144.828125 127.277344 Z M 148.230469 125.511719 C 148.894531 125.167969 149.558594 124.820312 150.222656 124.480469 C 150.410156 125.347656 150.597656 126.214844 150.78125 127.082031 C 150.070312 127.46875 149.359375 127.859375 148.648438 128.25 C 148.507812 127.335938 148.367188 126.425781 148.230469 125.511719 Z M 155.046875 122.128906 C 155.714844 121.824219 156.386719 121.53125 157.0625 121.253906 C 157.410156 121.976562 157.761719 122.703125 158.113281 123.425781 C 157.390625 123.742188 156.671875 124.074219 155.953125 124.421875 C 155.652344 123.65625 155.347656 122.890625 155.046875 122.128906 Z M 158.488281 120.6875 C 159.167969 120.433594 159.84375 120.191406 160.523438 119.972656 C 160.957031 120.632812 161.390625 121.292969 161.824219 121.953125 C 161.09375 122.207031 160.367188 122.484375 159.640625 122.777344 C 159.261719 122.082031 158.875 121.382812 158.488281 120.6875 Z M 161.972656 119.539062 C 162.65625 119.347656 163.34375 119.179688 164.03125 119.03125 C 164.550781 119.640625 165.066406 120.246094 165.582031 120.851562 C 164.84375 121.023438 164.109375 121.222656 163.371094 121.445312 C 162.90625 120.8125 162.4375 120.175781 161.972656 119.539062 Z M 169.089844 118.46875 C 169.800781 118.460938 170.515625 118.484375 171.230469 118.546875 C 171.921875 119.074219 172.613281 119.605469 173.300781 120.136719 C 172.53125 120.089844 171.769531 120.078125 171.007812 120.105469 C 170.367188 119.558594 169.730469 119.015625 169.089844 118.46875 Z M 172.757812 118.726562 C 173.480469 118.839844 174.210938 118.988281 174.945312 119.175781 C 175.726562 119.691406 176.503906 120.203125 177.28125 120.71875 C 176.492188 120.535156 175.710938 120.390625 174.9375 120.289062 C 174.210938 119.769531 173.484375 119.246094 172.757812 118.726562 Z M 176.507812 119.636719 C 177.25 119.882812 178 120.175781 178.753906 120.507812 C 179.621094 121.023438 180.492188 121.542969 181.363281 122.058594 C 180.554688 121.714844 179.753906 121.421875 178.957031 121.175781 C 178.140625 120.664062 177.324219 120.148438 176.507812 119.636719 Z M 112.410156 126.09375 C 104.996094 139.011719 97.585938 151.929688 90.171875 164.847656 C 135.320312 191.390625 166.566406 112.28125 211.710938 138.828125 C 201.886719 133.402344 192.0625 127.976562 182.234375 122.550781 C 156.355469 103.921875 138.289062 144.722656 112.410156 126.09375 " fill-opacity="1" fill-rule="nonzero"/></g></g></g><g fill="#2e2c2c" fill-opacity="1"><g transform="translate(124.753583, 202.956777)"><g><path d="M 0.53125 0 L 7.03125 -37.359375 L 18.671875 -37.328125 C 23.003906 -37.316406 26.253906 -36.4375 28.421875 -34.6875 C 30.597656 -32.945312 31.582031 -30.492188 31.375 -27.328125 C 31.132812 -23.546875 28.957031 -20.78125 24.84375 -19.03125 C 26.320312 -18.519531 27.472656 -17.554688 28.296875 -16.140625 C 29.117188 -14.734375 29.472656 -13.070312 29.359375 -11.15625 C 29.117188 -7.632812 27.734375 -4.894531 25.203125 -2.9375 C 22.679688 -0.976562 19.238281 0 14.875 0 Z M 10.90625 -16.265625 L 9.140625 -6.1875 L 15.0625 -6.15625 C 16.90625 -6.15625 18.453125 -6.613281 19.703125 -7.53125 C 20.953125 -8.445312 21.695312 -9.679688 21.9375 -11.234375 C 22.175781 -12.773438 21.96875 -13.976562 21.3125 -14.84375 C 20.65625 -15.707031 19.546875 -16.171875 17.984375 -16.234375 Z M 11.828125 -21.703125 L 16.9375 -21.65625 C 18.832031 -21.6875 20.382812 -22.128906 21.59375 -22.984375 C 22.800781 -23.835938 23.523438 -25.03125 23.765625 -26.5625 C 24.191406 -29.570312 22.609375 -31.082031 19.015625 -31.09375 L 13.46875 -31.125 Z M 11.828125 -21.703125 "/></g></g></g><g fill="#2e2c2c" fill-opacity="1"><g transform="translate(155.066532, 202.956777)"><g><path d="M 0.53125 0 L 7.03125 -37.359375 L 17.75 -37.328125 C 20.269531 -37.273438 22.535156 -36.707031 24.546875 -35.625 C 26.554688 -34.539062 28.179688 -32.976562 29.421875 -30.9375 C 30.671875 -28.90625 31.425781 -26.613281 31.6875 -24.0625 C 31.820312 -22.570312 31.804688 -21.050781 31.640625 -19.5 L 31.453125 -18.140625 C 30.703125 -12.660156 28.550781 -8.265625 25 -4.953125 C 21.445312 -1.648438 17.140625 0 12.078125 0 Z M 13.46875 -31.125 L 9.140625 -6.1875 L 12.265625 -6.15625 C 15.722656 -6.15625 18.5 -7.421875 20.59375 -9.953125 C 22.6875 -12.484375 23.882812 -16.304688 24.1875 -21.421875 L 24.25 -22.25 C 24.300781 -25.070312 23.757812 -27.234375 22.625 -28.734375 C 21.5 -30.242188 19.816406 -31.03125 17.578125 -31.09375 Z M 13.46875 -31.125 "/></g></g></g><g fill="#2e2c2c" fill-opacity="1"><g transform="translate(185.985967, 202.956777)"><g/></g></g><g fill="#0cc0df" fill-opacity="1"><g transform="translate(187.499992, 202.620397)"><g><path d="M 21.09375 -9.984375 C 21.445312 -12.015625 20.445312 -13.570312 18.09375 -14.65625 L 13.140625 -16.625 C 7.390625 -19.1875 4.660156 -22.71875 4.953125 -27.21875 C 5.066406 -29.3125 5.75 -31.160156 7 -32.765625 C 8.25 -34.367188 10.003906 -35.628906 12.265625 -36.546875 C 14.523438 -37.460938 16.960938 -37.90625 19.578125 -37.875 C 23.179688 -37.800781 26.09375 -36.722656 28.3125 -34.640625 C 30.539062 -32.566406 31.640625 -29.785156 31.609375 -26.296875 L 24.125 -26.296875 C 24.207031 -27.992188 23.832031 -29.3125 23 -30.25 C 22.164062 -31.1875 20.878906 -31.675781 19.140625 -31.71875 C 17.429688 -31.75 15.941406 -31.359375 14.671875 -30.546875 C 13.410156 -29.734375 12.660156 -28.617188 12.421875 -27.203125 C 12.097656 -25.335938 13.347656 -23.859375 16.171875 -22.765625 L 19.546875 -21.46875 L 21.5 -20.578125 C 26.539062 -18.078125 28.898438 -14.570312 28.578125 -10.0625 C 28.429688 -7.851562 27.726562 -5.945312 26.46875 -4.34375 C 25.207031 -2.75 23.492188 -1.523438 21.328125 -0.671875 C 19.171875 0.179688 16.789062 0.582031 14.1875 0.53125 C 11.539062 0.488281 9.179688 -0.0625 7.109375 -1.125 C 5.035156 -2.1875 3.460938 -3.6875 2.390625 -5.625 C 1.378906 -7.414062 0.90625 -9.46875 0.96875 -11.78125 L 8.5 -11.75 C 8.257812 -7.695312 10.25 -5.632812 14.46875 -5.5625 C 16.300781 -5.5625 17.804688 -5.960938 18.984375 -6.765625 C 20.160156 -7.578125 20.863281 -8.648438 21.09375 -9.984375 Z M 21.09375 -9.984375 "/></g></g></g><g fill="#0cc0df" fill-opacity="1"><g transform="translate(216.607772, 202.620397)"><g><path d="M 34.609375 -37.359375 L 30.40625 -12.71875 C 29.820312 -8.601562 28.109375 -5.347656 25.265625 -2.953125 C 22.429688 -0.554688 18.910156 0.601562 14.703125 0.53125 C 12.066406 0.488281 9.773438 -0.0820312 7.828125 -1.1875 C 5.890625 -2.289062 4.457031 -3.847656 3.53125 -5.859375 C 2.613281 -7.867188 2.300781 -10.148438 2.59375 -12.703125 L 6.78125 -37.359375 L 14.296875 -37.359375 L 10.109375 -12.671875 C 9.984375 -11.710938 9.972656 -10.816406 10.078125 -9.984375 C 10.421875 -7.210938 12.070312 -5.773438 15.03125 -5.671875 C 17.15625 -5.597656 18.890625 -6.175781 20.234375 -7.40625 C 21.585938 -8.644531 22.460938 -10.410156 22.859375 -12.703125 L 27.0625 -37.359375 Z M 34.609375 -37.359375 "/></g></g></g><g fill="#0cc0df" fill-opacity="1"><g transform="translate(247.947263, 202.620397)"><g><path d="M 0.53125 0 L 7.03125 -37.359375 L 18.671875 -37.328125 C 23.003906 -37.316406 26.253906 -36.4375 28.421875 -34.6875 C 30.597656 -32.945312 31.582031 -30.492188 31.375 -27.328125 C 31.132812 -23.546875 28.957031 -20.78125 24.84375 -19.03125 C 26.320312 -18.519531 27.472656 -17.554688 28.296875 -16.140625 C 29.117188 -14.734375 29.472656 -13.070312 29.359375 -11.15625 C 29.117188 -7.632812 27.734375 -4.894531 25.203125 -2.9375 C 22.679688 -0.976562 19.238281 0 14.875 0 Z M 10.90625 -16.265625 L 9.140625 -6.1875 L 15.0625 -6.15625 C 16.90625 -6.15625 18.453125 -6.613281 19.703125 -7.53125 C 20.953125 -8.445312 21.695312 -9.679688 21.9375 -11.234375 C 22.175781 -12.773438 21.96875 -13.976562 21.3125 -14.84375 C 20.65625 -15.707031 19.546875 -16.171875 17.984375 -16.234375 Z M 11.828125 -21.703125 L 16.9375 -21.65625 C 18.832031 -21.6875 20.382812 -22.128906 21.59375 -22.984375 C 22.800781 -23.835938 23.523438 -25.03125 23.765625 -26.5625 C 24.191406 -29.570312 22.609375 -31.082031 19.015625 -31.09375 L 13.46875 -31.125 Z M 11.828125 -21.703125 "/></g></g></g><g fill="#2e2c2c" fill-opacity="1"><g transform="translate(143.042983, 228.829497)"><g><path d="M -0.546875 0 L 2.859375 -16.03125 L 14.40625 -16.03125 L 13.703125 -12.703125 L 6.03125 -12.703125 L 5.421875 -9.90625 L 13.109375 -9.90625 L 12.40625 -6.578125 L 4.734375 -6.578125 L 3.3125 0 Z M -0.546875 0 "/></g></g></g><g fill="#2e2c2c" fill-opacity="1"><g transform="translate(156.123007, 228.829497)"><g><path d="M -1.5625 0 L 7.890625 -16.03125 L 12.28125 -16.03125 L 14.953125 0 L 10.984375 0 L 10.609375 -2.859375 L 4.484375 -2.859375 L 2.90625 0 Z M 6.125 -5.921875 L 10.25 -5.921875 L 9.484375 -12.03125 Z M 6.125 -5.921875 "/></g></g></g><g fill="#2e2c2c" fill-opacity="1"><g transform="translate(172.875039, 228.829497)"><g><path d="M 7.734375 0.28125 C 6.421875 0.28125 5.234375 0.0390625 4.171875 -0.4375 C 3.117188 -0.925781 2.285156 -1.660156 1.671875 -2.640625 C 1.066406 -3.628906 0.765625 -4.867188 0.765625 -6.359375 C 0.765625 -7.785156 0.976562 -9.101562 1.40625 -10.3125 C 1.84375 -11.519531 2.460938 -12.570312 3.265625 -13.46875 C 4.066406 -14.363281 5.035156 -15.0625 6.171875 -15.5625 C 7.316406 -16.0625 8.597656 -16.3125 10.015625 -16.3125 C 10.835938 -16.3125 11.660156 -16.195312 12.484375 -15.96875 C 13.316406 -15.738281 14.050781 -15.347656 14.6875 -14.796875 C 15.320312 -14.253906 15.796875 -13.519531 16.109375 -12.59375 L 12.59375 -11.421875 C 12.3125 -12.097656 11.910156 -12.5625 11.390625 -12.8125 C 10.867188 -13.070312 10.28125 -13.203125 9.625 -13.203125 C 8.875 -13.203125 8.203125 -13.019531 7.609375 -12.65625 C 7.015625 -12.300781 6.507812 -11.816406 6.09375 -11.203125 C 5.675781 -10.597656 5.351562 -9.914062 5.125 -9.15625 C 4.90625 -8.394531 4.796875 -7.609375 4.796875 -6.796875 C 4.796875 -5.492188 5.101562 -4.519531 5.71875 -3.875 C 6.332031 -3.226562 7.128906 -2.894531 8.109375 -2.875 C 8.722656 -2.875 9.316406 -3 9.890625 -3.25 C 10.460938 -3.507812 11.003906 -3.976562 11.515625 -4.65625 L 14.78125 -3.390625 C 14.050781 -2.253906 13.097656 -1.359375 11.921875 -0.703125 C 10.753906 -0.046875 9.359375 0.28125 7.734375 0.28125 Z M 7.734375 0.28125 "/></g></g></g><g fill="#2e2c2c" fill-opacity="1"><g transform="translate(189.027069, 228.829497)"><g><path d="M 3.796875 0 L 6.484375 -12.703125 L 1.375 -12.703125 L 2.09375 -16.03125 L 16.15625 -16.03125 L 15.453125 -12.703125 L 10.3125 -12.703125 L 7.65625 0 Z M 3.796875 0 "/></g></g></g><g fill="#2e2c2c" fill-opacity="1"><g transform="translate(203.835093, 228.829497)"><g><path d="M 8.046875 0.28125 C 6.503906 0.28125 5.191406 0 4.109375 -0.5625 C 3.035156 -1.132812 2.207031 -1.925781 1.625 -2.9375 C 1.050781 -3.957031 0.765625 -5.128906 0.765625 -6.453125 C 0.765625 -7.828125 0.992188 -9.109375 1.453125 -10.296875 C 1.921875 -11.492188 2.578125 -12.546875 3.421875 -13.453125 C 4.273438 -14.359375 5.273438 -15.0625 6.421875 -15.5625 C 7.578125 -16.0625 8.84375 -16.3125 10.21875 -16.3125 C 11.675781 -16.3125 12.953125 -16.046875 14.046875 -15.515625 C 15.148438 -14.992188 16.007812 -14.21875 16.625 -13.1875 C 17.25 -12.164062 17.5625 -10.914062 17.5625 -9.4375 C 17.5625 -8.039062 17.328125 -6.753906 16.859375 -5.578125 C 16.390625 -4.398438 15.722656 -3.367188 14.859375 -2.484375 C 14.003906 -1.609375 13 -0.925781 11.84375 -0.4375 C 10.6875 0.0390625 9.421875 0.28125 8.046875 0.28125 Z M 8.375 -2.828125 C 9.414062 -2.828125 10.316406 -3.117188 11.078125 -3.703125 C 11.847656 -4.285156 12.445312 -5.054688 12.875 -6.015625 C 13.3125 -6.984375 13.53125 -8.007812 13.53125 -9.09375 C 13.53125 -10.039062 13.359375 -10.8125 13.015625 -11.40625 C 12.671875 -12.007812 12.226562 -12.457031 11.6875 -12.75 C 11.144531 -13.050781 10.5625 -13.203125 9.9375 -13.203125 C 9.15625 -13.203125 8.445312 -13.019531 7.8125 -12.65625 C 7.175781 -12.300781 6.632812 -11.816406 6.1875 -11.203125 C 5.738281 -10.597656 5.398438 -9.921875 5.171875 -9.171875 C 4.941406 -8.421875 4.828125 -7.648438 4.828125 -6.859375 C 4.828125 -6.128906 4.957031 -5.457031 5.21875 -4.84375 C 5.476562 -4.238281 5.875 -3.75 6.40625 -3.375 C 6.9375 -3.007812 7.59375 -2.828125 8.375 -2.828125 Z M 8.375 -2.828125 "/></g></g></g><g fill="#2e2c2c" fill-opacity="1"><g transform="translate(222.147126, 228.829497)"><g><path d="M -0.546875 0 L 2.859375 -16.03125 L 8.859375 -16.03125 C 10.804688 -16.03125 12.335938 -15.707031 13.453125 -15.0625 C 14.566406 -14.414062 15.125 -13.304688 15.125 -11.734375 C 15.125 -10.097656 14.6875 -8.867188 13.8125 -8.046875 C 12.9375 -7.222656 11.691406 -6.691406 10.078125 -6.453125 L 13.375 0 L 9.390625 0 L 6.3125 -6.046875 L 4.609375 -6.046875 L 3.3125 0 Z M 5.28125 -9.21875 L 7.75 -9.21875 C 8.375 -9.21875 8.9375 -9.269531 9.4375 -9.375 C 9.945312 -9.476562 10.351562 -9.6875 10.65625 -10 C 10.957031 -10.3125 11.109375 -10.765625 11.109375 -11.359375 C 11.109375 -11.960938 10.847656 -12.359375 10.328125 -12.546875 C 9.804688 -12.742188 9.128906 -12.84375 8.296875 -12.84375 L 6.046875 -12.84375 Z M 5.28125 -9.21875 "/></g></g></g><g fill="#2e2c2c" fill-opacity="1"><g transform="translate(237.603161, 228.829497)"><g><path d="M 4.578125 0 L 5.8125 -5.78125 L 1.96875 -16.03125 L 6.078125 -16.03125 L 8.140625 -9.390625 L 13.390625 -16.03125 L 18.28125 -16.03125 L 9.703125 -5.78125 L 8.5 0 Z M 4.578125 0 "/></g></g></g></svg>