<svg xmlns="http://www.w3.org/2000/svg" xmlns:xlink="http://www.w3.org/1999/xlink" width="700" zoomAndPan="magnify" viewBox="0 0 525 299.999988" height="400" preserveAspectRatio="xMidYMid meet" version="1.0"><defs><g/><clipPath id="ff2f2053c5"><path d="M 52 49 L 189 49 L 189 279 L 52 279 Z M 52 49 " clip-rule="nonzero"/></clipPath><clipPath id="dd6edfc3f2"><path d="M 27.144531 -16.742188 L 316.585938 38.953125 L 263.867188 312.925781 L -25.574219 257.230469 Z M 27.144531 -16.742188 " clip-rule="nonzero"/></clipPath><clipPath id="0088d39d04"><path d="M 27.144531 -16.742188 L 316.585938 38.953125 L 263.867188 312.925781 L -25.574219 257.230469 Z M 27.144531 -16.742188 " clip-rule="nonzero"/></clipPath><clipPath id="10cb5532d6"><path d="M 14 22 L 234 22 L 234 231 L 14 231 Z M 14 22 " clip-rule="nonzero"/></clipPath><clipPath id="90b2260a9f"><path d="M 27.144531 -16.742188 L 316.585938 38.953125 L 263.867188 312.925781 L -25.574219 257.230469 Z M 27.144531 -16.742188 " clip-rule="nonzero"/></clipPath><clipPath id="aadb56a42e"><path d="M 27.144531 -16.742188 L 316.585938 38.953125 L 263.867188 312.925781 L -25.574219 257.230469 Z M 27.144531 -16.742188 " clip-rule="nonzero"/></clipPath><clipPath id="02e3dd1eab"><path d="M 92 173 L 279 173 L 279 263 L 92 263 Z M 92 173 " clip-rule="nonzero"/></clipPath><clipPath id="5d6cfbf8f0"><path d="M 27.144531 -16.742188 L 316.585938 38.953125 L 263.867188 312.925781 L -25.574219 257.230469 Z M 27.144531 -16.742188 " clip-rule="nonzero"/></clipPath><clipPath id="f2962fc029"><path d="M 27.144531 -16.742188 L 316.585938 38.953125 L 263.867188 312.925781 L -25.574219 257.230469 Z M 27.144531 -16.742188 " clip-rule="nonzero"/></clipPath><clipPath id="f7ac9d457c"><path d="M 73 68 L 255 68 L 255 132 L 73 132 Z M 73 68 " clip-rule="nonzero"/></clipPath><clipPath id="ec8c359abd"><path d="M 155.191406 22.933594 L 256.375 111.164062 L 174.058594 205.566406 L 72.875 117.335938 Z M 155.191406 22.933594 " clip-rule="nonzero"/></clipPath><clipPath id="6711ab5e6c"><path d="M 155.191406 22.933594 L 256.375 111.164062 L 174.058594 205.566406 L 72.875 117.335938 Z M 155.191406 22.933594 " clip-rule="nonzero"/></clipPath></defs><g clip-path="url(#ff2f2053c5)"><g clip-path="url(#dd6edfc3f2)"><g clip-path="url(#0088d39d04)"><path fill="#2e2c2c" d="M 177.636719 277.820312 C 181.257812 277.460938 184.816406 276.933594 188.3125 276.253906 C 130.019531 276.558594 80.011719 232.425781 74.160156 173.257812 C 68.308594 114.085938 108.707031 61.015625 165.929688 49.894531 C 162.363281 49.914062 158.773438 50.09375 155.15625 50.449219 C 92.367188 56.65625 46.503906 112.589844 52.710938 175.378906 C 58.917969 238.164062 114.851562 284.027344 177.636719 277.820312 " fill-opacity="1" fill-rule="nonzero"/></g></g></g><g clip-path="url(#10cb5532d6)"><g clip-path="url(#90b2260a9f)"><g clip-path="url(#aadb56a42e)"><path fill="#0cc0df" d="M 44.121094 222.601562 C 46.648438 225.507812 49.289062 228.261719 52.023438 230.867188 C 16.007812 180.671875 23.476562 110.375 71.03125 69.027344 C 118.582031 27.679688 189.234375 30.042969 233.941406 72.683594 C 231.738281 69.617188 229.382812 66.617188 226.855469 63.710938 C 182.980469 13.25 106.503906 7.914062 56.042969 51.789062 C 5.582031 95.664062 0.246094 172.140625 44.121094 222.601562 " fill-opacity="1" fill-rule="nonzero"/></g></g></g><g clip-path="url(#02e3dd1eab)"><g clip-path="url(#5d6cfbf8f0)"><g clip-path="url(#f2962fc029)"><path fill="#0cc0df" d="M 155.730469 238.445312 C 126.671875 224.3125 105 201.089844 92.464844 173.867188 C 100.234375 206.300781 121.929688 235.132812 154.265625 250.859375 C 196.503906 271.40625 245.117188 263.859375 278.945312 235.539062 C 242.078125 255.640625 196.367188 258.207031 155.730469 238.445312 " fill-opacity="1" fill-rule="nonzero"/></g></g></g><g clip-path="url(#f7ac9d457c)"><g clip-path="url(#ec8c359abd)"><g clip-path="url(#6711ab5e6c)"><path fill="#2e2c2c" d="M 220.742188 85.707031 C 219.695312 84.738281 218.644531 83.847656 217.589844 83.035156 C 216.433594 82.039062 215.28125 81.039062 214.128906 80.046875 C 215.101562 80.828125 216.082031 81.679688 217.046875 82.605469 C 218.28125 83.636719 219.511719 84.671875 220.742188 85.707031 Z M 243.316406 104.675781 C 234.125 97.152344 224.679688 93.886719 215.070312 93.328125 C 210.902344 88.097656 206.734375 82.871094 202.566406 77.640625 C 209.5625 78.640625 216.4375 81.617188 223.128906 87.714844 C 229.859375 93.367188 236.585938 99.019531 243.316406 104.675781 Z M 249.398438 109.78125 C 247.773438 108.480469 246.136719 107.304688 244.496094 106.242188 C 243.339844 105.246094 242.183594 104.25 241.03125 103.253906 C 242.59375 104.28125 244.152344 105.421875 245.707031 106.679688 C 246.9375 107.714844 248.164062 108.75 249.398438 109.78125 Z M 241.011719 104.167969 C 239.363281 103.261719 237.707031 102.46875 236.046875 101.785156 C 235.019531 100.828125 233.996094 99.871094 232.96875 98.914062 C 234.554688 99.585938 236.136719 100.359375 237.707031 101.234375 C 238.808594 102.210938 239.910156 103.1875 241.011719 104.167969 Z M 232.515625 100.476562 C 230.847656 99.933594 229.167969 99.484375 227.488281 99.125 C 226.59375 98.183594 225.695312 97.238281 224.800781 96.292969 C 226.40625 96.648438 228.007812 97.09375 229.601562 97.632812 C 230.574219 98.582031 231.542969 99.527344 232.515625 100.476562 Z M 223.917969 98.503906 C 222.226562 98.269531 220.535156 98.121094 218.835938 98.054688 C 218.070312 97.09375 217.3125 96.140625 216.546875 95.183594 C 218.167969 95.269531 219.789062 95.425781 221.402344 95.664062 C 222.238281 96.609375 223.078125 97.558594 223.917969 98.503906 Z M 198.773438 75.496094 C 197.675781 75.394531 196.574219 75.335938 195.472656 75.324219 C 194.84375 74.335938 194.21875 73.347656 193.589844 72.359375 C 194.609375 72.398438 195.632812 72.476562 196.652344 72.59375 C 197.355469 73.5625 198.066406 74.53125 198.773438 75.496094 Z M 211.738281 93.238281 C 202.097656 93.28125 192.304688 95.847656 182.453125 99.371094 C 181.242188 92.949219 180.035156 86.519531 178.824219 80.089844 C 185.992188 78.101562 193.121094 76.8125 200.144531 77.375 C 204.007812 82.660156 207.871094 87.949219 211.738281 93.238281 Z M 215.230469 98.015625 C 213.523438 98.054688 211.816406 98.160156 210.101562 98.339844 C 209.472656 97.351562 208.847656 96.367188 208.214844 95.375 C 209.851562 95.222656 211.484375 95.136719 213.113281 95.117188 C 213.816406 96.082031 214.523438 97.050781 215.230469 98.015625 Z M 206.46875 98.804688 C 204.746094 99.066406 203.027344 99.394531 201.296875 99.769531 C 200.808594 98.730469 200.3125 97.695312 199.820312 96.65625 C 201.46875 96.3125 203.109375 96.019531 204.75 95.785156 C 205.324219 96.792969 205.894531 97.796875 206.46875 98.804688 Z M 197.640625 100.644531 C 195.910156 101.089844 194.179688 101.585938 192.445312 102.125 C 192.085938 101.023438 191.730469 99.921875 191.371094 98.820312 C 193.027344 98.328125 194.679688 97.871094 196.332031 97.453125 C 196.769531 98.519531 197.207031 99.582031 197.640625 100.644531 Z M 188.769531 103.316406 C 187.03125 103.90625 185.289062 104.527344 183.546875 105.179688 C 183.328125 104.003906 183.105469 102.828125 182.882812 101.65625 C 184.546875 101.050781 186.207031 100.46875 187.863281 99.925781 C 188.167969 101.054688 188.46875 102.183594 188.769531 103.316406 Z M 176.019531 78.464844 C 174.898438 78.78125 173.773438 79.113281 172.652344 79.457031 C 172.566406 78.199219 172.484375 76.945312 172.394531 75.6875 C 173.441406 75.394531 174.484375 75.109375 175.523438 74.835938 C 175.691406 76.046875 175.855469 77.257812 176.019531 78.464844 Z M 179.042969 100.628906 C 169.179688 104.359375 159.273438 108.867188 149.410156 112.59375 C 151.195312 104.324219 152.984375 96.058594 154.765625 87.789062 C 161.949219 85.65625 169.15625 82.941406 176.339844 80.804688 C 177.242188 87.414062 178.140625 94.023438 179.042969 100.628906 Z M 179.855469 106.601562 C 178.113281 107.285156 176.367188 108 174.621094 108.722656 C 174.535156 107.46875 174.453125 106.210938 174.367188 104.953125 C 176.03125 104.277344 177.699219 103.617188 179.363281 102.976562 C 179.527344 104.183594 179.691406 105.390625 179.855469 106.601562 Z M 170.925781 110.277344 C 169.175781 111.019531 167.425781 111.773438 165.679688 112.53125 C 165.730469 111.1875 165.78125 109.84375 165.835938 108.507812 C 167.503906 107.796875 169.171875 107.097656 170.839844 106.40625 C 170.867188 107.699219 170.894531 108.988281 170.925781 110.277344 Z M 161.980469 114.128906 C 160.226562 114.886719 158.480469 115.640625 156.734375 116.382812 C 156.921875 114.957031 157.113281 113.527344 157.300781 112.097656 C 158.96875 111.40625 160.636719 110.703125 162.304688 110 C 162.195312 111.378906 162.085938 112.75 161.980469 114.128906 Z M 153.035156 117.9375 C 151.289062 118.664062 149.546875 119.375 147.800781 120.0625 C 148.125 118.550781 148.453125 117.039062 148.777344 115.527344 C 150.441406 114.886719 152.109375 114.226562 153.773438 113.550781 C 153.527344 115.011719 153.285156 116.476562 153.035156 117.9375 Z M 153.027344 85.503906 C 151.902344 85.800781 150.78125 86.078125 149.664062 86.332031 C 150.128906 84.746094 150.59375 83.15625 151.054688 81.566406 C 152.09375 81.355469 153.132812 81.121094 154.175781 80.875 C 153.792969 82.417969 153.410156 83.960938 153.027344 85.503906 Z M 146 113.851562 C 136.152344 117.375 126.359375 119.941406 116.714844 119.984375 C 121.464844 110.398438 126.214844 100.808594 130.960938 91.222656 C 137.980469 91.78125 145.109375 90.492188 152.28125 88.503906 C 150.1875 96.953125 148.097656 105.402344 146 113.851562 Z M 144.113281 121.484375 C 142.367188 122.132812 140.628906 122.757812 138.890625 123.347656 C 139.351562 121.757812 139.8125 120.167969 140.277344 118.582031 C 141.933594 118.03125 143.59375 117.453125 145.257812 116.847656 C 144.875 118.390625 144.492188 119.9375 144.113281 121.484375 Z M 135.210938 124.539062 C 133.476562 125.074219 131.746094 125.570312 130.011719 126.015625 C 130.613281 124.359375 131.210938 122.703125 131.808594 121.046875 C 133.460938 120.636719 135.113281 120.179688 136.769531 119.683594 C 136.25 121.300781 135.730469 122.917969 135.210938 124.539062 Z M 126.355469 126.894531 C 124.628906 127.269531 122.910156 127.59375 121.1875 127.855469 C 121.921875 126.144531 122.65625 124.429688 123.390625 122.71875 C 125.03125 122.484375 126.671875 122.191406 128.320312 121.847656 C 127.664062 123.53125 127.007812 125.210938 126.355469 126.894531 Z M 117.554688 128.324219 C 115.839844 128.5 114.132812 128.609375 112.425781 128.640625 C 113.292969 126.890625 114.164062 125.140625 115.027344 123.386719 C 116.65625 123.367188 118.289062 123.28125 119.925781 123.128906 C 119.132812 124.859375 118.34375 126.59375 117.554688 128.324219 Z M 130.328125 87.535156 C 129.238281 87.359375 128.148438 87.136719 127.058594 86.859375 C 128.058594 85.082031 129.0625 83.3125 130.0625 81.539062 C 131.074219 81.824219 132.082031 82.054688 133.101562 82.242188 C 132.175781 84.003906 131.253906 85.769531 130.328125 87.535156 Z M 113.382812 119.894531 C 103.777344 119.335938 94.332031 116.078125 85.136719 108.550781 C 92.75 99.328125 100.363281 90.105469 107.976562 80.882812 C 114.667969 86.980469 121.542969 89.957031 128.535156 90.953125 C 123.484375 100.601562 118.433594 110.25 113.382812 119.894531 Z M 108.824219 128.609375 C 107.125 128.539062 105.425781 128.394531 103.738281 128.160156 C 104.738281 126.390625 105.742188 124.617188 106.742188 122.839844 C 108.355469 123.078125 109.96875 123.238281 111.589844 123.320312 C 110.667969 125.085938 109.746094 126.847656 108.824219 128.609375 Z M 100.171875 127.535156 C 98.488281 127.175781 96.8125 126.730469 95.140625 126.183594 C 96.273438 124.410156 97.40625 122.644531 98.539062 120.867188 C 100.132812 121.410156 101.730469 121.851562 103.335938 122.210938 C 102.28125 123.988281 101.226562 125.761719 100.171875 127.535156 Z M 91.613281 124.878906 C 89.949219 124.191406 88.292969 123.402344 86.640625 122.496094 C 87.90625 120.753906 89.171875 119.011719 90.433594 117.269531 C 92.003906 118.144531 93.585938 118.917969 95.171875 119.589844 C 93.988281 121.351562 92.796875 123.117188 91.613281 124.878906 Z M 83.160156 120.417969 C 81.519531 119.359375 79.886719 118.183594 78.257812 116.878906 C 79.652344 115.195312 81.046875 113.507812 82.4375 111.820312 C 83.984375 113.082031 85.546875 114.222656 87.109375 115.25 C 85.792969 116.972656 84.476562 118.695312 83.160156 120.417969 Z M 114.851562 72.554688 C 115.824219 73.476562 116.796875 74.332031 117.777344 75.113281 C 116.460938 76.839844 115.144531 78.5625 113.828125 80.285156 C 112.773438 79.46875 111.722656 78.578125 110.675781 77.609375 C 112.070312 75.925781 113.460938 74.242188 114.851562 72.554688 Z M 119.855469 76.667969 C 120.84375 77.355469 121.828125 77.972656 122.824219 78.53125 C 121.632812 80.292969 120.449219 82.054688 119.261719 83.820312 C 118.191406 83.242188 117.125 82.605469 116.066406 81.894531 C 117.328125 80.152344 118.589844 78.410156 119.855469 76.667969 Z M 124.929688 79.617188 C 125.929688 80.09375 126.929688 80.503906 127.929688 80.859375 C 126.878906 82.636719 125.820312 84.410156 124.765625 86.1875 C 123.683594 85.828125 122.605469 85.414062 121.527344 84.929688 C 122.664062 83.160156 123.796875 81.386719 124.929688 79.617188 Z M 135.253906 82.566406 C 136.269531 82.683594 137.289062 82.761719 138.3125 82.800781 C 137.523438 84.53125 136.734375 86.261719 135.945312 87.992188 C 134.84375 87.980469 133.742188 87.921875 132.648438 87.820312 C 133.515625 86.066406 134.382812 84.316406 135.253906 82.566406 Z M 140.484375 82.820312 C 141.507812 82.804688 142.539062 82.75 143.570312 82.667969 C 142.917969 84.351562 142.261719 86.03125 141.605469 87.714844 C 140.496094 87.832031 139.386719 87.914062 138.28125 87.957031 C 139.015625 86.246094 139.75 84.53125 140.484375 82.820312 Z M 145.753906 82.441406 C 146.789062 82.316406 147.824219 82.164062 148.859375 81.984375 C 148.339844 83.601562 147.820312 85.222656 147.304688 86.839844 C 146.183594 87.058594 145.070312 87.25 143.957031 87.414062 C 144.558594 85.761719 145.15625 84.101562 145.753906 82.441406 Z M 156.378906 80.320312 C 157.417969 80.050781 158.460938 79.765625 159.503906 79.46875 C 159.257812 80.933594 159.015625 82.398438 158.765625 83.859375 C 157.644531 84.207031 156.519531 84.535156 155.398438 84.855469 C 155.722656 83.34375 156.050781 81.832031 156.378906 80.320312 Z M 161.710938 78.835938 C 162.757812 78.53125 163.804688 78.21875 164.847656 77.910156 C 164.738281 79.285156 164.628906 80.667969 164.515625 82.042969 C 163.394531 82.40625 162.269531 82.765625 161.144531 83.121094 C 161.335938 81.691406 161.523438 80.265625 161.710938 78.835938 Z M 167.058594 77.25 C 168.101562 76.9375 169.144531 76.628906 170.191406 76.320312 C 170.21875 77.613281 170.246094 78.90625 170.269531 80.195312 C 169.148438 80.550781 168.023438 80.910156 166.898438 81.277344 C 166.953125 79.933594 167.003906 78.589844 167.058594 77.25 Z M 177.726562 74.285156 C 178.769531 74.035156 179.808594 73.804688 180.847656 73.589844 C 181.148438 74.722656 181.445312 75.851562 181.75 76.980469 C 180.632812 77.238281 179.511719 77.515625 178.394531 77.8125 C 178.171875 76.636719 177.949219 75.460938 177.726562 74.285156 Z M 183.042969 73.175781 C 184.082031 72.996094 185.113281 72.839844 186.148438 72.714844 C 186.585938 73.777344 187.023438 74.839844 187.457031 75.898438 C 186.347656 76.0625 185.230469 76.257812 184.113281 76.480469 C 183.761719 75.378906 183.398438 74.277344 183.042969 73.175781 Z M 188.332031 72.492188 C 189.363281 72.40625 190.390625 72.355469 191.417969 72.335938 C 191.992188 73.34375 192.5625 74.351562 193.132812 75.359375 C 192.03125 75.402344 190.921875 75.488281 189.8125 75.601562 C 189.320312 74.566406 188.824219 73.527344 188.332031 72.492188 Z M 198.804688 72.917969 C 199.820312 73.101562 200.832031 73.335938 201.839844 73.617188 C 202.679688 74.566406 203.519531 75.511719 204.359375 76.460938 C 203.273438 76.179688 202.183594 75.957031 201.089844 75.789062 C 200.328125 74.828125 199.566406 73.875 198.804688 72.917969 Z M 203.96875 74.296875 C 204.972656 74.65625 205.972656 75.070312 206.972656 75.539062 C 207.945312 76.492188 208.914062 77.4375 209.886719 78.382812 C 208.8125 77.90625 207.734375 77.488281 206.65625 77.132812 C 205.757812 76.183594 204.863281 75.242188 203.96875 74.296875 Z M 209.082031 76.628906 C 210.070312 77.1875 211.0625 77.808594 212.046875 78.492188 C 213.148438 79.46875 214.25 80.445312 215.351562 81.421875 C 214.289062 80.710938 213.226562 80.070312 212.15625 79.5 C 211.128906 78.542969 210.105469 77.585938 209.082031 76.628906 Z M 115.710938 68.230469 C 101.566406 84.648438 87.425781 101.070312 73.277344 117.492188 C 130.492188 167.835938 196.894531 63.386719 254.105469 113.730469 C 241.558594 103.277344 229.011719 92.824219 216.460938 82.367188 C 184.601562 48.632812 147.570312 101.96875 115.710938 68.230469 " fill-opacity="1" fill-rule="nonzero"/></g></g></g><g fill="#2e2c2c" fill-opacity="1"><g transform="translate(139.529948, 185.350412)"><g><path d="M 0.8125 0 L 10.65625 -56.609375 L 28.296875 -56.5625 C 34.859375 -56.539062 39.785156 -55.207031 43.078125 -52.5625 C 46.367188 -49.914062 47.859375 -46.195312 47.546875 -41.40625 C 47.179688 -35.675781 43.878906 -31.488281 37.640625 -28.84375 C 39.890625 -28.070312 41.632812 -26.613281 42.875 -24.46875 C 44.125 -22.332031 44.660156 -19.8125 44.484375 -16.90625 C 44.117188 -11.570312 42.023438 -7.421875 38.203125 -4.453125 C 34.378906 -1.484375 29.160156 0 22.546875 0 Z M 16.53125 -24.65625 L 13.84375 -9.375 L 22.828125 -9.328125 C 25.617188 -9.328125 27.960938 -10.019531 29.859375 -11.40625 C 31.753906 -12.789062 32.878906 -14.664062 33.234375 -17.03125 C 33.597656 -19.363281 33.28125 -21.179688 32.28125 -22.484375 C 31.289062 -23.796875 29.613281 -24.503906 27.25 -24.609375 Z M 17.921875 -32.890625 L 25.65625 -32.8125 C 28.53125 -32.863281 30.878906 -33.535156 32.703125 -34.828125 C 34.535156 -36.128906 35.632812 -37.929688 36 -40.234375 C 36.644531 -44.796875 34.25 -47.09375 28.8125 -47.125 L 20.40625 -47.15625 Z M 17.921875 -32.890625 "/></g></g></g><g fill="#2e2c2c" fill-opacity="1"><g transform="translate(185.467123, 185.350412)"><g><path d="M 0.8125 0 L 10.65625 -56.609375 L 26.90625 -56.5625 C 30.71875 -56.488281 34.144531 -55.628906 37.1875 -53.984375 C 40.226562 -52.335938 42.695312 -49.972656 44.59375 -46.890625 C 46.488281 -43.804688 47.628906 -40.332031 48.015625 -36.46875 C 48.222656 -34.21875 48.195312 -31.910156 47.9375 -29.546875 L 47.671875 -27.484375 C 46.523438 -19.191406 43.265625 -12.535156 37.890625 -7.515625 C 32.515625 -2.503906 25.988281 0 18.3125 0 Z M 20.40625 -47.15625 L 13.84375 -9.375 L 18.578125 -9.328125 C 23.816406 -9.328125 28.023438 -11.242188 31.203125 -15.078125 C 34.378906 -18.921875 36.195312 -24.71875 36.65625 -32.46875 L 36.734375 -33.703125 C 36.816406 -37.984375 36 -41.265625 34.28125 -43.546875 C 32.570312 -45.828125 30.019531 -47.019531 26.625 -47.125 Z M 20.40625 -47.15625 "/></g></g></g><g fill="#2e2c2c" fill-opacity="1"><g transform="translate(232.323387, 185.350412)"><g/></g></g><g fill="#0cc0df" fill-opacity="1"><g transform="translate(234.61779, 184.840648)"><g><path d="M 31.953125 -15.125 C 32.503906 -18.207031 30.988281 -20.566406 27.40625 -22.203125 L 19.90625 -25.1875 C 11.195312 -29.082031 7.0625 -34.4375 7.5 -41.25 C 7.6875 -44.414062 8.722656 -47.210938 10.609375 -49.640625 C 12.503906 -52.078125 15.160156 -53.988281 18.578125 -55.375 C 22.003906 -56.769531 25.703125 -57.441406 29.671875 -57.390625 C 35.140625 -57.285156 39.554688 -55.65625 42.921875 -52.5 C 46.296875 -49.351562 47.957031 -45.132812 47.90625 -39.84375 L 36.546875 -39.84375 C 36.671875 -42.414062 36.101562 -44.414062 34.84375 -45.84375 C 33.59375 -47.269531 31.644531 -48.007812 29 -48.0625 C 26.40625 -48.101562 24.148438 -47.507812 22.234375 -46.28125 C 20.316406 -45.050781 19.175781 -43.363281 18.8125 -41.21875 C 18.320312 -38.382812 20.21875 -36.140625 24.5 -34.484375 L 29.625 -32.546875 L 32.578125 -31.1875 C 40.222656 -27.394531 43.800781 -22.078125 43.3125 -15.234375 C 43.082031 -11.890625 42.015625 -9.003906 40.109375 -6.578125 C 38.203125 -4.160156 35.609375 -2.300781 32.328125 -1 C 29.046875 0.289062 25.4375 0.894531 21.5 0.8125 C 17.476562 0.738281 13.898438 -0.0976562 10.765625 -1.703125 C 7.628906 -3.316406 5.242188 -5.585938 3.609375 -8.515625 C 2.085938 -11.234375 1.378906 -14.34375 1.484375 -17.84375 L 12.875 -17.8125 C 12.507812 -11.664062 15.523438 -8.539062 21.921875 -8.4375 C 24.703125 -8.4375 26.984375 -9.046875 28.765625 -10.265625 C 30.554688 -11.484375 31.617188 -13.101562 31.953125 -15.125 Z M 31.953125 -15.125 "/></g></g></g><g fill="#0cc0df" fill-opacity="1"><g transform="translate(278.728613, 184.840648)"><g><path d="M 52.453125 -56.609375 L 46.078125 -19.28125 C 45.191406 -13.039062 42.597656 -8.101562 38.296875 -4.46875 C 33.992188 -0.84375 28.65625 0.914062 22.28125 0.8125 C 18.289062 0.738281 14.820312 -0.128906 11.875 -1.796875 C 8.9375 -3.472656 6.765625 -5.832031 5.359375 -8.875 C 3.960938 -11.925781 3.484375 -15.382812 3.921875 -19.25 L 10.265625 -56.609375 L 21.65625 -56.609375 L 15.3125 -19.203125 C 15.132812 -17.753906 15.125 -16.394531 15.28125 -15.125 C 15.800781 -10.925781 18.300781 -8.75 22.78125 -8.59375 C 26 -8.488281 28.628906 -9.367188 30.671875 -11.234375 C 32.722656 -13.097656 34.046875 -15.769531 34.640625 -19.25 L 41.015625 -56.609375 Z M 52.453125 -56.609375 "/></g></g></g><g fill="#0cc0df" fill-opacity="1"><g transform="translate(326.221442, 184.840648)"><g><path d="M 0.8125 0 L 10.65625 -56.609375 L 28.296875 -56.5625 C 34.859375 -56.539062 39.785156 -55.207031 43.078125 -52.5625 C 46.367188 -49.914062 47.859375 -46.195312 47.546875 -41.40625 C 47.179688 -35.675781 43.878906 -31.488281 37.640625 -28.84375 C 39.890625 -28.070312 41.632812 -26.613281 42.875 -24.46875 C 44.125 -22.332031 44.660156 -19.8125 44.484375 -16.90625 C 44.117188 -11.570312 42.023438 -7.421875 38.203125 -4.453125 C 34.378906 -1.484375 29.160156 0 22.546875 0 Z M 16.53125 -24.65625 L 13.84375 -9.375 L 22.828125 -9.328125 C 25.617188 -9.328125 27.960938 -10.019531 29.859375 -11.40625 C 31.753906 -12.789062 32.878906 -14.664062 33.234375 -17.03125 C 33.597656 -19.363281 33.28125 -21.179688 32.28125 -22.484375 C 31.289062 -23.796875 29.613281 -24.503906 27.25 -24.609375 Z M 17.921875 -32.890625 L 25.65625 -32.8125 C 28.53125 -32.863281 30.878906 -33.535156 32.703125 -34.828125 C 34.535156 -36.128906 35.632812 -37.929688 36 -40.234375 C 36.644531 -44.796875 34.25 -47.09375 28.8125 -47.125 L 20.40625 -47.15625 Z M 17.921875 -32.890625 "/></g></g></g><g fill="#2e2c2c" fill-opacity="1"><g transform="translate(173.644744, 221.682276)"><g><path d="M -0.796875 0 L 4.109375 -23.03125 L 20.6875 -23.03125 L 19.6875 -18.25 L 8.65625 -18.25 L 7.796875 -14.234375 L 18.828125 -14.234375 L 17.828125 -9.453125 L 6.796875 -9.453125 L 4.765625 0 Z M -0.796875 0 "/></g></g></g><g fill="#2e2c2c" fill-opacity="1"><g transform="translate(192.435125, 221.682276)"><g><path d="M -2.234375 0 L 11.34375 -23.03125 L 17.65625 -23.03125 L 21.484375 0 L 15.796875 0 L 15.234375 -4.109375 L 6.453125 -4.109375 L 4.171875 0 Z M 8.796875 -8.515625 L 14.71875 -8.515625 L 13.625 -17.28125 Z M 8.796875 -8.515625 "/></g></g></g><g fill="#2e2c2c" fill-opacity="1"><g transform="translate(216.500605, 221.682276)"><g><path d="M 11.109375 0.40625 C 9.222656 0.40625 7.519531 0.0546875 6 -0.640625 C 4.476562 -1.335938 3.28125 -2.394531 2.40625 -3.8125 C 1.539062 -5.226562 1.109375 -7.003906 1.109375 -9.140625 C 1.109375 -11.179688 1.414062 -13.070312 2.03125 -14.8125 C 2.65625 -16.550781 3.539062 -18.0625 4.6875 -19.34375 C 5.84375 -20.632812 7.238281 -21.640625 8.875 -22.359375 C 10.519531 -23.085938 12.351562 -23.453125 14.375 -23.453125 C 15.570312 -23.453125 16.757812 -23.285156 17.9375 -22.953125 C 19.125 -22.617188 20.175781 -22.0625 21.09375 -21.28125 C 22.019531 -20.5 22.703125 -19.441406 23.140625 -18.109375 L 18.109375 -16.421875 C 17.691406 -17.378906 17.109375 -18.039062 16.359375 -18.40625 C 15.609375 -18.78125 14.765625 -18.96875 13.828125 -18.96875 C 12.742188 -18.96875 11.773438 -18.707031 10.921875 -18.1875 C 10.078125 -17.675781 9.351562 -16.984375 8.75 -16.109375 C 8.15625 -15.234375 7.695312 -14.25 7.375 -13.15625 C 7.050781 -12.0625 6.890625 -10.929688 6.890625 -9.765625 C 6.890625 -7.898438 7.332031 -6.5 8.21875 -5.5625 C 9.101562 -4.632812 10.25 -4.160156 11.65625 -4.140625 C 12.53125 -4.140625 13.378906 -4.320312 14.203125 -4.6875 C 15.035156 -5.050781 15.816406 -5.71875 16.546875 -6.6875 L 21.25 -4.859375 C 20.1875 -3.222656 18.816406 -1.9375 17.140625 -1 C 15.460938 -0.0625 13.453125 0.40625 11.109375 0.40625 Z M 11.109375 0.40625 "/></g></g></g><g fill="#2e2c2c" fill-opacity="1"><g transform="translate(239.704141, 221.682276)"><g><path d="M 5.453125 0 L 9.3125 -18.25 L 1.96875 -18.25 L 3 -23.03125 L 23.203125 -23.03125 L 22.203125 -18.25 L 14.828125 -18.25 L 11 0 Z M 5.453125 0 "/></g></g></g><g fill="#2e2c2c" fill-opacity="1"><g transform="translate(260.976917, 221.682276)"><g><path d="M 11.546875 0.40625 C 9.335938 0.40625 7.457031 0 5.90625 -0.8125 C 4.363281 -1.625 3.175781 -2.757812 2.34375 -4.21875 C 1.519531 -5.6875 1.109375 -7.375 1.109375 -9.28125 C 1.109375 -11.25 1.441406 -13.085938 2.109375 -14.796875 C 2.773438 -16.515625 3.71875 -18.023438 4.9375 -19.328125 C 6.15625 -20.628906 7.585938 -21.640625 9.234375 -22.359375 C 10.890625 -23.085938 12.707031 -23.453125 14.6875 -23.453125 C 16.78125 -23.453125 18.613281 -23.070312 20.1875 -22.3125 C 21.757812 -21.550781 22.992188 -20.4375 23.890625 -18.96875 C 24.796875 -17.5 25.25 -15.691406 25.25 -13.546875 C 25.25 -11.546875 24.90625 -9.703125 24.21875 -8.015625 C 23.539062 -6.328125 22.585938 -4.847656 21.359375 -3.578125 C 20.128906 -2.316406 18.679688 -1.335938 17.015625 -0.640625 C 15.347656 0.0546875 13.523438 0.40625 11.546875 0.40625 Z M 12.03125 -4.0625 C 13.53125 -4.0625 14.832031 -4.484375 15.9375 -5.328125 C 17.039062 -6.171875 17.898438 -7.28125 18.515625 -8.65625 C 19.140625 -10.03125 19.453125 -11.5 19.453125 -13.0625 C 19.453125 -14.425781 19.203125 -15.535156 18.703125 -16.390625 C 18.210938 -17.253906 17.578125 -17.898438 16.796875 -18.328125 C 16.015625 -18.753906 15.175781 -18.96875 14.28125 -18.96875 C 13.15625 -18.96875 12.132812 -18.707031 11.21875 -18.1875 C 10.3125 -17.675781 9.535156 -16.984375 8.890625 -16.109375 C 8.253906 -15.234375 7.769531 -14.253906 7.4375 -13.171875 C 7.101562 -12.085938 6.9375 -10.984375 6.9375 -9.859375 C 6.9375 -8.804688 7.125 -7.84375 7.5 -6.96875 C 7.875 -6.09375 8.441406 -5.390625 9.203125 -4.859375 C 9.960938 -4.328125 10.90625 -4.0625 12.03125 -4.0625 Z M 12.03125 -4.0625 "/></g></g></g><g fill="#2e2c2c" fill-opacity="1"><g transform="translate(287.28345, 221.682276)"><g><path d="M -0.796875 0 L 4.109375 -23.03125 L 12.71875 -23.03125 C 15.53125 -23.03125 17.734375 -22.566406 19.328125 -21.640625 C 20.921875 -20.710938 21.71875 -19.117188 21.71875 -16.859375 C 21.71875 -14.515625 21.09375 -12.75 19.84375 -11.5625 C 18.59375 -10.382812 16.804688 -9.625 14.484375 -9.28125 L 19.203125 0 L 13.484375 0 L 9.0625 -8.6875 L 6.625 -8.6875 L 4.765625 0 Z M 7.59375 -13.234375 L 11.140625 -13.234375 C 12.035156 -13.234375 12.84375 -13.304688 13.5625 -13.453125 C 14.289062 -13.609375 14.875 -13.910156 15.3125 -14.359375 C 15.75 -14.804688 15.96875 -15.457031 15.96875 -16.3125 C 15.96875 -17.1875 15.59375 -17.757812 14.84375 -18.03125 C 14.09375 -18.3125 13.125 -18.453125 11.9375 -18.453125 L 8.6875 -18.453125 Z M 7.59375 -13.234375 "/></g></g></g><g fill="#2e2c2c" fill-opacity="1"><g transform="translate(309.487139, 221.682276)"><g><path d="M 6.59375 0 L 8.34375 -8.3125 L 2.828125 -23.03125 L 8.71875 -23.03125 L 11.6875 -13.484375 L 19.25 -23.03125 L 26.28125 -23.03125 L 13.9375 -8.3125 L 12.203125 0 Z M 6.59375 0 "/></g></g></g></svg>