<svg xmlns="http://www.w3.org/2000/svg" xmlns:xlink="http://www.w3.org/1999/xlink" width="1200" zoomAndPan="magnify" viewBox="0 0 900 749.999995" height="1000" preserveAspectRatio="xMidYMid meet" version="1.0"><defs><g/><clipPath id="af532bd9d6"><path d="M 110 87 L 494 87 L 494 730 L 110 730 Z M 110 87 " clip-rule="nonzero"/></clipPath><clipPath id="1df1c6de39"><path d="M 40.328125 -99.96875 L 854.148438 56.632812 L 706.195312 825.527344 L -107.625 668.925781 Z M 40.328125 -99.96875 " clip-rule="nonzero"/></clipPath><clipPath id="18e8298726"><path d="M 40.328125 -99.96875 L 854.148438 56.632812 L 706.195312 825.527344 L -107.625 668.925781 Z M 40.328125 -99.96875 " clip-rule="nonzero"/></clipPath><clipPath id="ce557d7bf0"><path d="M 4 9 L 622 9 L 622 596 L 4 596 Z M 4 9 " clip-rule="nonzero"/></clipPath><clipPath id="bd852f23c2"><path d="M 40.328125 -99.96875 L 854.148438 56.632812 L 706.195312 825.527344 L -107.625 668.925781 Z M 40.328125 -99.96875 " clip-rule="nonzero"/></clipPath><clipPath id="9d80d4fbe6"><path d="M 40.328125 -99.96875 L 854.148438 56.632812 L 706.195312 825.527344 L -107.625 668.925781 Z M 40.328125 -99.96875 " clip-rule="nonzero"/></clipPath><clipPath id="8691cd5346"><path d="M 223 435 L 748 435 L 748 685 L 223 685 Z M 223 435 " clip-rule="nonzero"/></clipPath><clipPath id="cd955bc900"><path d="M 40.328125 -99.96875 L 854.148438 56.632812 L 706.195312 825.527344 L -107.625 668.925781 Z M 40.328125 -99.96875 " clip-rule="nonzero"/></clipPath><clipPath id="8fcc28ded4"><path d="M 40.328125 -99.96875 L 854.148438 56.632812 L 706.195312 825.527344 L -107.625 668.925781 Z M 40.328125 -99.96875 " clip-rule="nonzero"/></clipPath><clipPath id="dd7292527a"><path d="M 171 148 L 659 148 L 659 320 L 171 320 Z M 171 148 " clip-rule="nonzero"/></clipPath><clipPath id="61ca71f0a8"><path d="M 392.011719 26.058594 L 665.042969 264.132812 L 442.742188 519.074219 L 169.710938 281 Z M 392.011719 26.058594 " clip-rule="nonzero"/></clipPath><clipPath id="2f37ae2312"><path d="M 392.011719 26.058594 L 665.042969 264.132812 L 442.742188 519.074219 L 169.710938 281 Z M 392.011719 26.058594 " clip-rule="nonzero"/></clipPath><clipPath id="f05c5ab060"><path d="M 584.65625 509.351562 L 640 509.351562 L 640 564.851562 L 584.65625 564.851562 Z M 584.65625 509.351562 " clip-rule="nonzero"/></clipPath></defs><g fill="#2e2c2c" fill-opacity="1"><g transform="translate(373.287172, 563.922209)"><g><path d="M 3.71875 0 L 3.71875 -56.40625 L 44.078125 -56.40625 L 44.078125 -44.671875 L 17.0625 -44.671875 L 17.0625 -34.875 L 44.078125 -34.875 L 44.078125 -23.140625 L 17.0625 -23.140625 L 17.0625 0 Z M 3.71875 0 "/></g></g></g><g fill="#2e2c2c" fill-opacity="1"><g transform="translate(419.219062, 563.922209)"><g><path d="M 0.421875 0 L 21.78125 -56.40625 L 36.484375 -56.40625 L 57.84375 0 L 43.3125 0 L 39.9375 -10.046875 L 18.328125 -10.046875 L 14.953125 0 Z M 21.953125 -20.859375 L 36.3125 -20.859375 L 29.046875 -42.296875 Z M 21.953125 -20.859375 "/></g></g></g><g fill="#2e2c2c" fill-opacity="1"><g transform="translate(477.478253, 563.922209)"><g><path d="M 31.15625 1.015625 C 25.300781 1.015625 20.257812 -0.164062 16.03125 -2.53125 C 11.8125 -4.894531 8.578125 -8.269531 6.328125 -12.65625 C 4.078125 -17.050781 2.953125 -22.234375 2.953125 -28.203125 C 2.953125 -34.171875 4.117188 -39.332031 6.453125 -43.6875 C 8.796875 -48.050781 12.101562 -51.429688 16.375 -53.828125 C 20.65625 -56.222656 25.695312 -57.421875 31.5 -57.421875 C 36.84375 -57.421875 41.5 -56.238281 45.46875 -53.875 C 49.4375 -51.507812 52.488281 -48.328125 54.625 -44.328125 L 42.8125 -40.015625 C 41.570312 -42.328125 39.878906 -43.972656 37.734375 -44.953125 C 35.597656 -45.941406 33.378906 -46.4375 31.078125 -46.4375 C 28.484375 -46.4375 26.113281 -45.71875 23.96875 -44.28125 C 21.832031 -42.851562 20.144531 -40.769531 18.90625 -38.03125 C 17.675781 -35.300781 17.0625 -32.023438 17.0625 -28.203125 C 17.0625 -22.296875 18.425781 -17.78125 21.15625 -14.65625 C 23.882812 -11.53125 27.242188 -9.96875 31.234375 -9.96875 C 33.378906 -9.96875 35.59375 -10.414062 37.875 -11.3125 C 40.15625 -12.21875 41.941406 -13.878906 43.234375 -16.296875 L 54.96875 -11.984375 C 52.71875 -7.992188 49.519531 -4.828125 45.375 -2.484375 C 41.238281 -0.148438 36.5 1.015625 31.15625 1.015625 Z M 31.15625 1.015625 "/></g></g></g><g fill="#2e2c2c" fill-opacity="1"><g transform="translate(534.302069, 563.922209)"><g><path d="M 19.421875 0 L 19.421875 -44.671875 L 1.265625 -44.671875 L 1.265625 -56.40625 L 50.828125 -56.40625 L 50.828125 -44.671875 L 32.671875 -44.671875 L 32.671875 0 Z M 19.421875 0 "/></g></g></g><g fill="#2e2c2c" fill-opacity="1"><g transform="translate(586.404349, 563.922209)"><g/></g></g><g fill="#2e2c2c" fill-opacity="1"><g transform="translate(613.423105, 563.922209)"><g/></g></g><g fill="#2e2c2c" fill-opacity="1"><g transform="translate(640.451222, 563.922209)"><g><path d="M 3.71875 0 L 3.71875 -56.40625 L 25.421875 -56.40625 C 30.316406 -56.40625 34.691406 -55.925781 38.546875 -54.96875 C 42.398438 -54.007812 45.4375 -52.265625 47.65625 -49.734375 C 49.882812 -47.203125 51 -43.597656 51 -38.921875 C 51 -36.785156 50.601562 -34.660156 49.8125 -32.546875 C 49.03125 -30.441406 47.664062 -28.515625 45.71875 -26.765625 C 43.78125 -25.023438 41.007812 -23.675781 37.40625 -22.71875 L 53.78125 0 L 38.328125 0 L 23.046875 -21.28125 L 17.0625 -21.28125 L 17.0625 0 Z M 17.0625 -32.421875 L 25.84375 -32.421875 C 28.988281 -32.421875 31.617188 -32.828125 33.734375 -33.640625 C 35.847656 -34.460938 36.90625 -36.164062 36.90625 -38.75 C 36.90625 -41.394531 35.847656 -43.125 33.734375 -43.9375 C 31.617188 -44.757812 28.988281 -45.171875 25.84375 -45.171875 L 17.0625 -45.171875 Z M 17.0625 -32.421875 "/></g></g></g><g fill="#2e2c2c" fill-opacity="1"><g transform="translate(695.670804, 563.922209)"><g><path d="M 22.375 0 L 22.375 -21.953125 L 0.84375 -56.40625 L 16.375 -56.40625 L 28.96875 -34.703125 L 41.546875 -56.40625 L 57.171875 -56.40625 L 35.625 -21.953125 L 35.625 0 Z M 22.375 0 "/></g></g></g><g clip-path="url(#af532bd9d6)"><g clip-path="url(#1df1c6de39)"><g clip-path="url(#18e8298726)"><path fill="#2e2c2c" d="M 463.160156 727.675781 C 473.332031 726.671875 483.328125 725.183594 493.15625 723.273438 C 329.371094 724.132812 188.859375 600.132812 172.417969 433.882812 C 155.976562 267.632812 269.488281 118.511719 430.265625 87.273438 C 420.25 87.324219 410.15625 87.824219 399.992188 88.828125 C 223.578125 106.269531 94.707031 263.429688 112.152344 439.839844 C 129.59375 616.253906 286.75 745.121094 463.160156 727.675781 " fill-opacity="1" fill-rule="nonzero"/></g></g></g><g clip-path="url(#ce557d7bf0)"><g clip-path="url(#bd852f23c2)"><g clip-path="url(#9d80d4fbe6)"><path fill="#0cc0df" d="M 88.015625 572.527344 C 95.121094 580.699219 102.542969 588.425781 110.21875 595.75 C 9.023438 454.714844 30.015625 257.207031 163.625 141.027344 C 297.238281 24.847656 495.75 31.488281 621.359375 151.300781 C 615.171875 142.679688 608.558594 134.253906 601.453125 126.082031 C 478.171875 -15.695312 263.292969 -30.691406 121.511719 92.585938 C -20.265625 215.871094 -35.265625 430.746094 88.015625 572.527344 " fill-opacity="1" fill-rule="nonzero"/></g></g></g><g clip-path="url(#8691cd5346)"><g clip-path="url(#cd955bc900)"><g clip-path="url(#8fcc28ded4)"><path fill="#0cc0df" d="M 401.605469 617.042969 C 319.960938 577.332031 259.074219 512.082031 223.851562 435.59375 C 245.683594 526.730469 306.632812 607.738281 397.492188 651.925781 C 516.175781 709.65625 652.765625 688.449219 747.816406 608.882812 C 644.222656 665.359375 515.785156 672.574219 401.605469 617.042969 " fill-opacity="1" fill-rule="nonzero"/></g></g></g><g clip-path="url(#dd7292527a)"><g clip-path="url(#61ca71f0a8)"><g clip-path="url(#2f37ae2312)"><path fill="#2e2c2c" d="M 568.8125 195.378906 C 565.992188 192.761719 563.164062 190.367188 560.308594 188.167969 C 557.199219 185.488281 554.085938 182.792969 550.972656 180.109375 C 553.605469 182.21875 556.242188 184.515625 558.855469 187.007812 C 562.175781 189.800781 565.492188 192.589844 568.8125 195.378906 Z M 629.707031 246.539062 C 604.910156 226.246094 579.4375 217.441406 553.519531 215.933594 C 542.273438 201.832031 531.039062 187.726562 519.792969 173.625 C 538.65625 176.3125 557.199219 184.34375 575.257812 200.789062 C 593.40625 216.035156 611.554688 231.289062 629.707031 246.539062 Z M 646.105469 260.316406 C 641.722656 256.804688 637.308594 253.632812 632.882812 250.765625 C 629.769531 248.082031 626.652344 245.390625 623.539062 242.703125 C 627.757812 245.484375 631.957031 248.558594 636.152344 251.949219 C 639.46875 254.742188 642.777344 257.527344 646.105469 260.316406 Z M 623.492188 245.167969 C 619.042969 242.734375 614.574219 240.59375 610.089844 238.746094 C 607.324219 236.160156 604.5625 233.582031 601.792969 231 C 606.070312 232.816406 610.335938 234.898438 614.574219 237.261719 C 617.546875 239.898438 620.519531 242.53125 623.492188 245.167969 Z M 600.570312 235.222656 C 596.070312 233.75 591.542969 232.542969 587.007812 231.574219 C 584.597656 229.03125 582.179688 226.484375 579.765625 223.929688 C 584.09375 224.894531 588.414062 226.09375 592.714844 227.546875 C 595.335938 230.105469 597.949219 232.65625 600.570312 235.222656 Z M 577.382812 229.890625 C 572.820312 229.261719 568.253906 228.867188 563.675781 228.679688 C 561.609375 226.09375 559.5625 223.519531 557.503906 220.9375 C 561.878906 221.167969 566.242188 221.59375 570.589844 222.230469 C 572.847656 224.785156 575.117188 227.34375 577.382812 229.890625 Z M 509.554688 167.835938 C 506.59375 167.558594 503.628906 167.410156 500.65625 167.371094 C 498.960938 164.707031 497.269531 162.039062 495.578125 159.378906 C 498.328125 159.476562 501.089844 159.691406 503.835938 160.011719 C 505.738281 162.621094 507.652344 165.230469 509.554688 167.835938 Z M 544.53125 215.695312 C 518.527344 215.8125 492.109375 222.734375 465.542969 232.238281 C 462.277344 214.90625 459.015625 197.570312 455.746094 180.230469 C 475.089844 174.863281 494.320312 171.394531 513.257812 172.902344 C 523.675781 187.164062 534.097656 201.429688 544.53125 215.695312 Z M 553.949219 228.578125 C 549.347656 228.679688 544.738281 228.972656 540.113281 229.453125 C 538.421875 226.785156 536.730469 224.125 535.03125 221.457031 C 539.445312 221.046875 543.84375 220.8125 548.234375 220.765625 C 550.136719 223.367188 552.042969 225.976562 553.949219 228.578125 Z M 530.3125 230.703125 C 525.675781 231.414062 521.03125 232.292969 516.371094 233.308594 C 515.050781 230.511719 513.714844 227.710938 512.382812 224.910156 C 516.828125 223.988281 521.253906 223.199219 525.683594 222.5625 C 527.226562 225.28125 528.769531 227.992188 530.3125 230.703125 Z M 506.507812 235.664062 C 501.84375 236.871094 497.175781 238.207031 492.492188 239.660156 C 491.519531 236.6875 490.558594 233.722656 489.597656 230.75 C 494.0625 229.417969 498.519531 228.183594 502.972656 227.066406 C 504.152344 229.933594 505.335938 232.800781 506.507812 235.664062 Z M 482.574219 242.878906 C 477.890625 244.464844 473.191406 246.144531 468.492188 247.90625 C 467.898438 244.734375 467.296875 241.5625 466.699219 238.394531 C 471.183594 236.765625 475.671875 235.199219 480.136719 233.726562 C 480.949219 236.777344 481.761719 239.824219 482.574219 242.878906 Z M 448.1875 175.84375 C 445.164062 176.703125 442.132812 177.597656 439.105469 178.519531 C 438.871094 175.128906 438.648438 171.742188 438.414062 168.355469 C 441.234375 167.5625 444.046875 166.789062 446.851562 166.058594 C 447.300781 169.324219 447.742188 172.585938 448.1875 175.84375 Z M 456.34375 235.628906 C 429.742188 245.6875 403.019531 257.84375 376.417969 267.894531 C 381.230469 245.597656 386.054688 223.300781 390.863281 200.996094 C 410.230469 195.238281 429.679688 187.921875 449.050781 182.160156 C 451.484375 199.984375 453.910156 217.808594 456.34375 235.628906 Z M 458.535156 251.730469 C 453.832031 253.585938 449.125 255.503906 444.410156 257.457031 C 444.1875 254.074219 443.960938 250.683594 443.734375 247.292969 C 448.222656 245.46875 452.722656 243.6875 457.207031 241.960938 C 457.652344 245.21875 458.097656 248.472656 458.535156 251.730469 Z M 434.445312 261.652344 C 429.726562 263.652344 425.011719 265.6875 420.292969 267.730469 C 420.4375 264.109375 420.574219 260.484375 420.71875 256.875 C 425.214844 254.964844 429.714844 253.074219 434.214844 251.207031 C 434.292969 254.691406 434.367188 258.175781 434.445312 261.652344 Z M 410.316406 272.042969 C 405.59375 274.082031 400.882812 276.121094 396.167969 278.125 C 396.679688 274.273438 397.1875 270.417969 397.699219 266.566406 C 402.199219 264.695312 406.699219 262.796875 411.199219 260.902344 C 410.90625 264.621094 410.609375 268.324219 410.316406 272.042969 Z M 386.191406 282.316406 C 381.488281 284.273438 376.78125 286.183594 372.074219 288.042969 C 372.949219 283.964844 373.832031 279.890625 374.707031 275.808594 C 379.199219 274.082031 383.695312 272.304688 388.1875 270.480469 C 387.523438 274.425781 386.863281 278.371094 386.191406 282.316406 Z M 386.167969 194.835938 C 383.140625 195.628906 380.117188 196.382812 377.101562 197.0625 C 378.355469 192.785156 379.605469 188.5 380.851562 184.214844 C 383.65625 183.640625 386.453125 183.015625 389.265625 182.339844 C 388.234375 186.503906 387.199219 190.671875 386.167969 194.835938 Z M 367.21875 271.285156 C 340.652344 280.796875 314.242188 287.71875 288.230469 287.835938 C 301.035156 261.980469 313.851562 236.113281 326.65625 210.257812 C 345.589844 211.765625 364.816406 208.289062 384.164062 202.921875 C 378.515625 225.714844 372.871094 248.496094 367.21875 271.285156 Z M 362.125 291.875 C 357.417969 293.628906 352.726562 295.316406 348.039062 296.90625 C 349.285156 292.613281 350.53125 288.332031 351.785156 284.046875 C 356.25 282.570312 360.730469 281.003906 365.214844 279.375 C 364.179688 283.535156 363.148438 287.707031 362.125 291.875 Z M 338.117188 300.113281 C 333.433594 301.558594 328.765625 302.902344 324.097656 304.105469 C 325.710938 299.636719 327.324219 295.164062 328.945312 290.699219 C 333.390625 289.589844 337.851562 288.359375 342.320312 287.019531 C 340.921875 291.386719 339.519531 295.75 338.117188 300.113281 Z M 314.234375 306.46875 C 309.578125 307.488281 304.933594 308.359375 300.292969 309.066406 C 302.273438 304.449219 304.25 299.824219 306.230469 295.207031 C 310.65625 294.574219 315.089844 293.785156 319.535156 292.863281 C 317.761719 297.394531 315.992188 301.933594 314.234375 306.46875 Z M 290.492188 310.332031 C 285.871094 310.800781 281.261719 311.09375 276.660156 311.1875 C 279.003906 306.464844 281.347656 301.742188 283.683594 297.007812 C 288.070312 296.957031 292.476562 296.722656 296.886719 296.3125 C 294.75 300.988281 292.621094 305.660156 290.492188 310.332031 Z M 324.949219 200.304688 C 322.003906 199.839844 319.0625 199.234375 316.132812 198.484375 C 318.828125 193.695312 321.53125 188.921875 324.234375 184.140625 C 326.953125 184.902344 329.683594 185.53125 332.429688 186.027344 C 329.929688 190.789062 327.445312 195.542969 324.949219 200.304688 Z M 279.246094 287.59375 C 253.328125 286.085938 227.851562 277.296875 203.050781 256.992188 C 223.589844 232.113281 244.117188 207.242188 264.65625 182.371094 C 282.710938 198.808594 301.253906 206.839844 320.117188 209.53125 C 306.492188 235.554688 292.867188 261.578125 279.246094 287.59375 Z M 266.941406 311.101562 C 262.359375 310.910156 257.78125 310.515625 253.226562 309.882812 C 255.929688 305.109375 258.632812 300.324219 261.328125 295.535156 C 265.679688 296.183594 270.035156 296.605469 274.410156 296.832031 C 271.917969 301.589844 269.429688 306.347656 266.941406 311.101562 Z M 243.605469 308.203125 C 239.066406 307.230469 234.542969 306.027344 230.035156 304.558594 C 233.089844 299.773438 236.148438 295.003906 239.203125 290.21875 C 243.5 291.675781 247.8125 292.871094 252.140625 293.835938 C 249.300781 298.628906 246.449219 303.414062 243.605469 308.203125 Z M 220.519531 301.035156 C 216.03125 299.175781 211.566406 297.046875 207.113281 294.609375 C 210.519531 289.90625 213.933594 285.210938 217.339844 280.507812 C 221.578125 282.875 225.84375 284.957031 230.125 286.769531 C 226.921875 291.523438 223.71875 296.28125 220.519531 301.035156 Z M 197.726562 289.007812 C 193.300781 286.148438 188.890625 282.972656 184.503906 279.457031 C 188.261719 274.910156 192.019531 270.363281 195.769531 265.816406 C 199.949219 269.214844 204.160156 272.292969 208.375 275.0625 C 204.820312 279.710938 201.273438 284.355469 197.726562 289.007812 Z M 283.207031 159.898438 C 285.820312 162.394531 288.449219 164.695312 291.097656 166.808594 C 287.546875 171.457031 283.992188 176.105469 280.441406 180.753906 C 277.59375 178.546875 274.765625 176.15625 271.941406 173.539062 C 275.703125 168.996094 279.453125 164.449219 283.207031 159.898438 Z M 296.703125 170.996094 C 299.359375 172.847656 302.019531 174.515625 304.703125 176.019531 C 301.496094 180.777344 298.296875 185.523438 295.097656 190.285156 C 292.210938 188.734375 289.339844 187.015625 286.484375 185.097656 C 289.886719 180.402344 293.289062 175.695312 296.703125 170.996094 Z M 310.382812 178.957031 C 313.082031 180.234375 315.78125 181.347656 318.484375 182.308594 C 315.640625 187.101562 312.792969 191.882812 309.941406 196.679688 C 307.019531 195.707031 304.113281 194.585938 301.210938 193.28125 C 304.273438 188.511719 307.328125 183.730469 310.382812 178.957031 Z M 338.230469 186.90625 C 340.976562 187.226562 343.726562 187.433594 346.484375 187.535156 C 344.359375 192.203125 342.230469 196.878906 340.097656 201.542969 C 337.125 201.507812 334.15625 201.351562 331.203125 201.082031 C 333.539062 196.351562 335.886719 191.625 338.230469 186.90625 Z M 352.339844 187.59375 C 355.101562 187.550781 357.882812 187.40625 360.664062 187.183594 C 358.902344 191.722656 357.132812 196.253906 355.363281 200.792969 C 352.367188 201.113281 349.382812 201.335938 346.398438 201.449219 C 348.375 196.832031 350.359375 192.210938 352.339844 187.59375 Z M 366.554688 186.570312 C 369.34375 186.234375 372.136719 185.820312 374.925781 185.335938 C 373.53125 189.699219 372.132812 194.066406 370.734375 198.433594 C 367.714844 199.027344 364.710938 199.546875 361.707031 199.988281 C 363.328125 195.523438 364.941406 191.050781 366.554688 186.570312 Z M 395.207031 180.847656 C 398.019531 180.117188 400.832031 179.351562 403.644531 178.558594 C 402.976562 182.503906 402.320312 186.457031 401.652344 190.394531 C 398.621094 191.328125 395.597656 192.214844 392.566406 193.078125 C 393.445312 189.003906 394.324219 184.929688 395.207031 180.847656 Z M 409.597656 176.847656 C 412.417969 176.023438 415.234375 175.183594 418.050781 174.351562 C 417.753906 178.0625 417.464844 181.785156 417.164062 185.5 C 414.136719 186.476562 411.097656 187.445312 408.066406 188.402344 C 408.578125 184.550781 409.09375 180.707031 409.597656 176.847656 Z M 424.015625 172.5625 C 426.828125 171.726562 429.644531 170.886719 432.460938 170.0625 C 432.535156 173.542969 432.609375 177.035156 432.679688 180.511719 C 429.65625 181.472656 426.621094 182.445312 423.589844 183.425781 C 423.734375 179.808594 423.871094 176.183594 424.015625 172.5625 Z M 452.792969 164.574219 C 455.601562 163.898438 458.40625 163.269531 461.207031 162.691406 C 462.019531 165.746094 462.828125 168.796875 463.648438 171.84375 C 460.625 172.535156 457.609375 173.28125 454.59375 174.082031 C 453.992188 170.910156 453.394531 167.738281 452.792969 164.574219 Z M 467.128906 161.578125 C 469.929688 161.097656 472.71875 160.675781 475.503906 160.335938 C 476.6875 163.203125 477.867188 166.066406 479.042969 168.925781 C 476.046875 169.367188 473.03125 169.890625 470.023438 170.488281 C 469.066406 167.523438 468.09375 164.542969 467.128906 161.578125 Z M 481.402344 159.734375 C 484.179688 159.507812 486.953125 159.363281 489.722656 159.308594 C 491.265625 162.035156 492.8125 164.75 494.347656 167.464844 C 491.378906 167.582031 488.386719 167.8125 485.390625 168.125 C 484.058594 165.328125 482.726562 162.527344 481.402344 159.734375 Z M 509.640625 160.882812 C 512.382812 161.382812 515.109375 162.007812 517.828125 162.769531 C 520.09375 165.324219 522.363281 167.878906 524.625 170.433594 C 521.695312 169.683594 518.761719 169.082031 515.804688 168.625 C 513.75 166.039062 511.703125 163.464844 509.640625 160.882812 Z M 523.578125 164.601562 C 526.285156 165.570312 528.984375 166.683594 531.671875 167.957031 C 534.300781 170.519531 536.914062 173.070312 539.535156 175.628906 C 536.636719 174.335938 533.730469 173.210938 530.820312 172.246094 C 528.402344 169.695312 525.988281 167.148438 523.578125 164.601562 Z M 537.363281 170.894531 C 540.035156 172.394531 542.703125 174.070312 545.363281 175.917969 C 548.332031 178.546875 551.308594 181.1875 554.273438 183.824219 C 551.414062 181.902344 548.542969 180.175781 545.660156 178.636719 C 542.886719 176.054688 540.128906 173.46875 537.363281 170.894531 Z M 285.519531 148.234375 C 247.367188 192.527344 209.222656 236.820312 171.070312 281.109375 C 325.390625 416.902344 504.492188 135.171875 658.808594 270.96875 C 624.964844 242.765625 591.121094 214.574219 557.269531 186.371094 C 471.332031 95.375 371.449219 239.234375 285.519531 148.234375 " fill-opacity="1" fill-rule="nonzero"/></g></g></g><g clip-path="url(#f05c5ab060)"><path fill="#2e2c2c" d="M 612.257812 509.351562 C 627.503906 509.351562 639.863281 521.707031 639.863281 536.953125 C 639.863281 552.199219 627.503906 564.558594 612.257812 564.558594 C 597.015625 564.558594 584.65625 552.199219 584.65625 536.953125 C 584.65625 521.707031 597.015625 509.351562 612.257812 509.351562 " fill-opacity="1" fill-rule="nonzero"/></g><path fill="#ffffff" d="M 602.050781 537.214844 L 599.585938 537.214844 L 600.773438 533.835938 L 601.132812 533.710938 L 603.285156 533.710938 Z M 599.363281 532.554688 C 599.363281 532.148438 599.691406 531.816406 600.101562 531.816406 C 600.507812 531.816406 600.839844 532.148438 600.839844 532.554688 C 600.839844 532.964844 600.507812 533.292969 600.101562 533.292969 C 599.691406 533.292969 599.363281 532.964844 599.363281 532.554688 Z M 602.199219 528.710938 L 604.511719 531.617188 L 602.179688 532.425781 L 599.867188 529.519531 Z M 607.246094 526.960938 L 609.558594 529.867188 L 607.226562 530.675781 L 604.914062 527.769531 Z M 612.292969 525.210938 L 614.605469 528.117188 L 612.273438 528.925781 L 609.960938 526.019531 Z M 617.34375 523.464844 L 619.652344 526.367188 L 617.324219 527.175781 L 615.011719 524.269531 Z M 622.390625 521.714844 L 624.703125 524.621094 L 622.371094 525.425781 L 620.058594 522.523438 Z M 606.160156 533.710938 L 608.628906 533.710938 L 607.394531 537.214844 L 604.925781 537.214844 Z M 608.992188 540.808594 L 616.210938 544.976562 C 616.316406 545.039062 616.386719 545.152344 616.386719 545.277344 C 616.386719 545.40625 616.316406 545.519531 616.210938 545.582031 L 608.992188 549.75 C 608.9375 549.78125 608.875 549.796875 608.816406 549.796875 C 608.753906 549.796875 608.695312 549.78125 608.640625 549.75 C 608.53125 549.6875 608.464844 549.574219 608.464844 549.445312 L 608.464844 541.113281 C 608.464844 540.984375 608.53125 540.871094 608.640625 540.808594 C 608.75 540.746094 608.882812 540.746094 608.992188 540.808594 Z M 611.503906 533.710938 L 613.96875 533.710938 L 612.738281 537.214844 L 610.269531 537.214844 Z M 616.84375 533.710938 L 619.3125 533.710938 L 618.078125 537.214844 L 615.613281 537.214844 Z M 622.1875 533.710938 L 624.65625 533.710938 L 623.421875 537.214844 L 620.953125 537.214844 Z M 625.914062 525.125 L 622.441406 520.707031 L 598.660156 528.949219 L 598.605469 528.882812 L 598.605469 553.199219 L 625.636719 553.199219 L 625.636719 532.777344 L 603.828125 532.777344 L 625.914062 525.125 " fill-opacity="1" fill-rule="nonzero"/><g fill="#2e2c2c" fill-opacity="1"><g transform="translate(294.351099, 460.763497)"><g><path d="M 1.921875 0 L 25.125 -133.484375 L 66.734375 -133.390625 C 82.203125 -133.328125 93.816406 -130.175781 101.578125 -123.9375 C 109.335938 -117.707031 112.851562 -108.941406 112.125 -97.640625 C 111.257812 -84.128906 103.460938 -74.253906 88.734375 -68.015625 C 94.054688 -66.179688 98.179688 -62.742188 101.109375 -57.703125 C 104.046875 -52.660156 105.300781 -46.71875 104.875 -39.875 C 104.019531 -27.289062 99.082031 -17.5 90.0625 -10.5 C 81.050781 -3.5 68.753906 0 53.171875 0 Z M 38.96875 -58.125 L 32.640625 -22.09375 L 53.8125 -22 C 60.414062 -22 65.945312 -23.632812 70.40625 -26.90625 C 74.863281 -30.175781 77.519531 -34.59375 78.375 -40.15625 C 79.238281 -45.65625 78.492188 -49.945312 76.140625 -53.03125 C 73.785156 -56.113281 69.828125 -57.78125 64.265625 -58.03125 Z M 42.265625 -77.5625 L 60.5 -77.375 C 67.289062 -77.5 72.835938 -79.085938 77.140625 -82.140625 C 81.453125 -85.191406 84.035156 -89.441406 84.890625 -94.890625 C 86.421875 -105.640625 80.769531 -111.046875 67.9375 -111.109375 L 48.125 -111.203125 Z M 42.265625 -77.5625 "/></g></g></g><g fill="#2e2c2c" fill-opacity="1"><g transform="translate(402.672898, 460.763497)"><g><path d="M 1.921875 0 L 25.125 -133.484375 L 63.4375 -133.390625 C 72.425781 -133.203125 80.507812 -131.164062 87.6875 -127.28125 C 94.863281 -123.40625 100.679688 -117.832031 105.140625 -110.5625 C 109.609375 -103.289062 112.300781 -95.097656 113.21875 -85.984375 C 113.707031 -80.671875 113.644531 -75.234375 113.03125 -69.671875 L 112.390625 -64.8125 C 109.703125 -45.257812 102.015625 -29.566406 89.328125 -17.734375 C 76.648438 -5.910156 61.265625 0 43.171875 0 Z M 48.125 -111.203125 L 32.640625 -22.09375 L 43.828125 -22 C 56.171875 -22 66.082031 -26.519531 73.5625 -35.5625 C 81.050781 -44.613281 85.347656 -58.273438 86.453125 -76.546875 L 86.625 -79.484375 C 86.8125 -89.566406 84.890625 -97.296875 80.859375 -102.671875 C 76.828125 -108.054688 70.804688 -110.867188 62.796875 -111.109375 Z M 48.125 -111.203125 "/></g></g></g><g fill="#2e2c2c" fill-opacity="1"><g transform="translate(513.161948, 460.763497)"><g/></g></g><g fill="#0cc0df" fill-opacity="1"><g transform="translate(518.572178, 459.561441)"><g><path d="M 75.359375 -35.671875 C 76.640625 -42.941406 73.066406 -48.5 64.640625 -52.34375 L 46.9375 -59.40625 C 26.40625 -68.570312 16.65625 -81.195312 17.6875 -97.28125 C 18.125 -104.726562 20.570312 -111.328125 25.03125 -117.078125 C 29.488281 -122.828125 35.75 -127.332031 43.8125 -130.59375 C 51.882812 -133.863281 60.597656 -135.441406 69.953125 -135.328125 C 82.847656 -135.078125 93.269531 -131.238281 101.21875 -123.8125 C 109.164062 -116.382812 113.078125 -106.4375 112.953125 -93.96875 L 86.1875 -93.96875 C 86.488281 -100.019531 85.15625 -104.726562 82.1875 -108.09375 C 79.226562 -111.457031 74.628906 -113.195312 68.390625 -113.3125 C 62.285156 -113.4375 56.96875 -112.046875 52.4375 -109.140625 C 47.914062 -106.242188 45.226562 -102.257812 44.375 -97.1875 C 43.207031 -90.519531 47.671875 -85.234375 57.765625 -81.328125 L 69.859375 -76.734375 L 76.828125 -73.53125 C 94.859375 -64.601562 103.296875 -52.070312 102.140625 -35.9375 C 101.585938 -28.050781 99.0625 -21.25 94.5625 -15.53125 C 90.070312 -9.820312 83.960938 -5.4375 76.234375 -2.375 C 68.503906 0.675781 59.992188 2.109375 50.703125 1.921875 C 41.222656 1.742188 32.785156 -0.238281 25.390625 -4.03125 C 17.992188 -7.820312 12.375 -13.171875 8.53125 -20.078125 C 4.925781 -26.492188 3.242188 -33.828125 3.484375 -42.078125 L 30.34375 -41.984375 C 29.488281 -27.503906 36.609375 -20.140625 51.703125 -19.890625 C 58.242188 -19.890625 63.625 -21.328125 67.84375 -24.203125 C 72.0625 -27.078125 74.566406 -30.898438 75.359375 -35.671875 Z M 75.359375 -35.671875 "/></g></g></g><g fill="#0cc0df" fill-opacity="1"><g transform="translate(622.587357, 459.561441)"><g><path d="M 123.671875 -133.484375 L 108.640625 -45.46875 C 106.566406 -30.738281 100.457031 -19.09375 90.3125 -10.53125 C 80.164062 -1.976562 67.570312 2.171875 52.53125 1.921875 C 43.125 1.742188 34.953125 -0.3125 28.015625 -4.25 C 21.078125 -8.195312 15.957031 -13.757812 12.65625 -20.9375 C 9.351562 -28.125 8.222656 -36.269531 9.265625 -45.375 L 24.203125 -133.484375 L 51.0625 -133.484375 L 36.125 -45.296875 C 35.695312 -41.867188 35.664062 -38.660156 36.03125 -35.671875 C 37.25 -25.765625 43.144531 -20.628906 53.71875 -20.265625 C 61.300781 -20.015625 67.503906 -22.085938 72.328125 -26.484375 C 77.160156 -30.890625 80.28125 -37.1875 81.6875 -45.375 L 96.71875 -133.484375 Z M 123.671875 -133.484375 "/></g></g></g><g fill="#0cc0df" fill-opacity="1"><g transform="translate(734.577447, 459.561441)"><g><path d="M 1.921875 0 L 25.125 -133.484375 L 66.75 -133.390625 C 82.207031 -133.335938 93.816406 -130.191406 101.578125 -123.953125 C 109.347656 -117.722656 112.863281 -108.953125 112.125 -97.640625 C 111.269531 -84.128906 103.476562 -74.257812 88.75 -68.03125 C 94.0625 -66.195312 98.1875 -62.757812 101.125 -57.71875 C 104.0625 -52.675781 105.316406 -46.726562 104.890625 -39.875 C 104.023438 -27.289062 99.085938 -17.5 90.078125 -10.5 C 81.066406 -3.5 68.765625 0 53.171875 0 Z M 38.96875 -58.125 L 32.640625 -22.09375 L 53.8125 -22 C 60.414062 -22 65.945312 -23.632812 70.40625 -26.90625 C 74.875 -30.175781 77.535156 -34.59375 78.390625 -40.15625 C 79.242188 -45.65625 78.492188 -49.945312 76.140625 -53.03125 C 73.785156 -56.125 69.828125 -57.789062 64.265625 -58.03125 Z M 42.265625 -77.5625 L 60.515625 -77.375 C 67.296875 -77.5 72.835938 -79.085938 77.140625 -82.140625 C 81.453125 -85.203125 84.035156 -89.453125 84.890625 -94.890625 C 86.421875 -105.648438 80.769531 -111.0625 67.9375 -111.125 L 48.140625 -111.203125 Z M 42.265625 -77.5625 "/></g></g></g></svg>